<svg width="57" height="57" viewBox="0 0 57 57" fill="none" xmlns="http://www.w3.org/2000/svg">
<path fill-rule="evenodd" clip-rule="evenodd" d="M52.25 28.5C52.25 41.6166 41.6166 52.25 28.5 52.25C15.3832 52.25 4.75 41.6166 4.75 28.5C4.75 15.3832 15.3832 4.75 28.5 4.75C41.6166 4.75 52.25 15.3832 52.25 28.5ZM38.072 21.303C38.7676 21.9986 38.7676 23.1264 38.072 23.822L26.197 35.697C25.5013 36.3926 24.3737 36.3926 23.678 35.697L18.928 30.947C18.2324 30.2513 18.2324 29.1237 18.928 28.428C19.6236 27.7324 20.7514 27.7324 21.447 28.428L24.9375 31.9183L30.2451 26.6107L35.553 21.303C36.2487 20.6074 37.3763 20.6074 38.072 21.303Z" fill="#E95D0E"/>
</svg>
