<svg width="345" height="50" viewBox="0 0 345 50" fill="none" xmlns="http://www.w3.org/2000/svg">
<g clip-path="url(#clip0_12_535)">
<path d="M110.397 18.4704C109.525 18.4704 108.653 18.6147 107.853 18.9755C107.054 19.3362 106.327 19.7691 105.746 20.4185V18.759H103.202V36.6522H105.673V30.4473C106.327 31.0245 107.054 31.5296 107.853 31.8903C108.653 32.2511 109.598 32.3954 110.47 32.3954C111.415 32.3954 112.432 32.2511 113.304 31.8903C115.048 31.1688 116.357 29.798 117.083 28.0664C117.447 27.2006 117.592 26.3348 117.592 25.3968C117.665 23.5209 116.865 21.7172 115.557 20.4185C114.176 19.1198 112.287 18.3983 110.397 18.4704ZM113.668 28.7157C112.795 29.5815 111.56 30.0866 110.324 30.0144C109.089 30.0144 107.853 29.5094 107.054 28.6436C106.182 27.7778 105.673 26.5512 105.673 25.2525C105.673 24.026 106.182 22.8716 107.054 22.0779C107.926 21.2121 109.089 20.7071 110.324 20.7071C112.941 20.7071 115.048 22.7273 115.121 25.3247C115.121 25.3968 115.121 25.3968 115.121 25.469C115.048 26.6955 114.54 27.9221 113.668 28.7157ZM77.1835 20.4185C76.5294 19.7691 75.7299 19.2641 74.8578 18.9033C73.9856 18.5426 73.0408 18.3983 72.0233 18.3983C71.0785 18.3983 70.1337 18.6147 69.2616 18.9755C68.3895 19.3362 67.59 19.9134 66.9359 20.6349C66.2818 21.2843 65.8458 22.0058 65.4824 22.7994C64.8283 24.531 64.8283 26.4069 65.5551 28.0664C65.9184 28.9322 66.4272 29.7258 67.0813 30.3752C67.7354 31.0245 68.5348 31.6017 69.407 31.9625C70.2791 32.3232 71.2239 32.4675 72.2414 32.4675C73.1862 32.4675 74.131 32.2511 75.0758 31.8903C75.9479 31.4574 76.7474 30.9524 77.4742 30.2309C78.1283 29.5815 78.5643 28.7879 78.9277 27.9942C79.2911 27.1284 79.4365 26.2626 79.4365 25.3247C79.4365 24.4589 79.2184 23.5209 78.855 22.7273C78.419 21.7893 77.8375 20.9957 77.1835 20.4185ZM75.4392 28.7157C74.5671 29.5815 73.4042 30.0866 72.2414 30.0144C71.0059 30.0144 69.843 29.5815 68.9709 28.7157C68.0988 27.8499 67.59 26.6234 67.6627 25.3968C67.59 24.1703 68.0988 22.9437 68.9709 22.0779C70.7878 20.2742 73.6949 20.2742 75.5119 22.0779C76.384 22.9437 76.8201 24.1703 76.8201 25.3968C76.7474 26.6234 76.3113 27.7778 75.4392 28.7157ZM56.3977 20.7792C57.2698 20.7792 58.142 20.9957 58.8687 21.3564C59.5955 21.7893 60.1769 22.4387 60.5403 23.1602H63.3021C62.866 21.7172 61.9212 20.4906 60.7583 19.6248C59.5955 18.759 58.142 18.3261 56.6157 18.3983C55.5982 18.3983 54.6534 18.6147 53.7813 18.9755C52.9092 19.3362 52.037 19.9134 51.3829 20.6349C50.7288 21.2843 50.2928 22.0058 49.9294 22.8716C49.566 23.6652 49.4207 24.531 49.4207 25.3968C49.4207 26.3348 49.6387 27.2006 50.0021 28.0664C50.3655 28.86 50.8742 29.6537 51.5283 30.303C52.1824 30.9524 52.9818 31.5296 53.854 31.8903C54.7261 32.2511 55.6709 32.3954 56.6884 32.3954C58.142 32.4675 59.6682 32.0346 60.831 31.1688C62.0665 30.2309 62.9387 29.0043 63.4474 27.5613H60.6857C60.3223 28.355 59.7409 29.0043 59.0141 29.4372C58.2873 29.8701 57.4879 30.0866 56.6157 30.0866C55.3802 30.0866 54.2174 29.6537 53.3452 28.7879C52.4731 27.9221 51.9644 26.6955 52.037 25.469C52.037 24.2424 52.4731 23.0159 53.3452 22.1501C54.072 21.2121 55.2349 20.7071 56.3977 20.7792ZM95.4255 18.6147C94.5534 18.6147 93.6086 18.759 92.8091 19.1919C92.0823 19.6248 91.5009 20.202 91.1375 20.9235C90.7741 20.202 90.1927 19.6248 89.4659 19.1919C88.6665 18.8312 87.7944 18.6147 86.9222 18.6147C86.2681 18.6147 85.5414 18.759 84.9599 19.0476C84.3785 19.3362 83.7971 19.8413 83.361 20.3463V18.759H81.1807V32.0346H83.5791V25.2525C83.5064 24.026 83.7244 22.8716 84.3058 21.7893C84.8146 21.0678 85.7594 20.6349 86.7042 20.7071C87.5763 20.6349 88.4485 21.0678 88.9572 21.7893C89.5386 22.8716 89.7567 24.0981 89.684 25.3247V32.0346H92.0823V25.1082C92.0097 23.9538 92.2277 22.7273 92.8091 21.7172C93.9719 20.4906 95.9342 20.3463 97.1698 21.5007C97.2424 21.5729 97.2424 21.5729 97.3151 21.645C97.8965 22.4387 98.1872 23.3766 98.1146 24.3146V32.0346H100.586V23.9538C100.658 22.5108 100.15 21.0678 99.132 20.0577C98.1872 18.9755 96.8064 18.4704 95.4255 18.6147ZM170.138 20.4185C169.484 19.7691 168.757 19.3362 167.958 18.9755C167.158 18.6147 166.213 18.4704 165.341 18.4704C164.396 18.4704 163.452 18.6147 162.507 18.9755C160.835 19.697 159.454 21.0678 158.728 22.7273C158.364 23.5931 158.219 24.4589 158.219 25.3968C158.146 27.2727 158.946 29.0765 160.326 30.3752C161.707 31.746 163.597 32.3954 165.487 32.3954C166.359 32.3954 167.231 32.2511 168.03 31.8903C168.83 31.5296 169.557 31.0967 170.138 30.4473V32.0346H172.682V18.759H170.138V20.4185ZM168.902 28.7157C168.03 29.5815 166.867 30.0866 165.632 30.0866C163.016 30.1587 160.908 28.0664 160.835 25.5411C160.835 25.469 160.835 25.3968 160.835 25.3968C160.835 24.1703 161.344 23.0159 162.216 22.1501C163.088 21.2843 164.324 20.7792 165.559 20.8514C166.795 20.8514 168.03 21.3564 168.902 22.2222C169.775 23.088 170.283 24.3146 170.283 25.5411C170.283 26.6955 169.775 27.8499 168.902 28.7157ZM179.295 19.0476C178.714 19.3362 178.205 19.8413 177.914 20.3463V18.759H175.589V32.0346H178.06V24.6753C177.987 23.7374 178.205 22.7994 178.787 22.0058C179.441 21.3564 180.313 21.0678 181.185 21.0678V18.5426C180.531 18.5426 179.877 18.6869 179.295 19.0476ZM153.858 24.3146L152.986 23.9538C151.605 23.4488 150.951 22.8716 150.951 22.1501C150.951 21.7172 151.096 21.3564 151.387 21.0678C151.678 20.7792 152.114 20.6349 152.477 20.6349C152.913 20.6349 153.349 20.7792 153.64 21.0678C153.931 21.3564 154.149 21.7893 154.149 22.2222H156.547C156.547 21.2121 156.111 20.202 155.384 19.4084C154.585 18.6869 153.567 18.3261 152.55 18.3983C151.46 18.3983 150.442 18.759 149.643 19.5527C148.843 20.2742 148.48 21.2843 148.48 22.2944C148.48 22.8716 148.553 23.4488 148.843 23.9538C149.134 24.4589 149.498 24.8918 149.934 25.2525C150.515 25.6133 151.169 25.9019 151.823 26.1183C152.187 26.2626 152.477 26.3348 152.695 26.4069C153.204 26.5512 153.64 26.8398 154.004 27.2006C154.294 27.5613 154.44 27.9221 154.44 28.355C154.44 28.86 154.222 29.3651 153.858 29.6537C153.495 30.0144 152.913 30.1587 152.405 30.1587C151.823 30.1587 151.242 29.9423 150.878 29.4372C150.442 28.9322 150.224 28.355 150.297 27.7056H147.971C147.971 28.9322 148.407 30.1587 149.28 31.0967C150.079 31.9625 151.242 32.3954 152.405 32.3232C153.567 32.3232 154.73 31.8903 155.53 31.1688C156.329 30.3752 156.838 29.2929 156.765 28.2107C156.838 27.3449 156.547 26.4791 156.111 25.7576C155.53 25.1082 154.73 24.531 153.858 24.3146ZM131.764 20.9235C131.183 20.3463 130.456 19.7691 129.729 19.4084C129.075 19.0476 128.348 18.759 127.622 18.6147C126.459 18.3983 125.223 18.3983 124.133 18.759C122.97 19.0476 121.953 19.697 121.153 20.4906C120.427 21.14 119.918 21.9336 119.554 22.7994C119.191 23.6652 119.046 24.6032 119.118 25.5411C119.118 26.4069 119.336 27.2727 119.7 28.0664C120.499 29.7258 121.88 31.0967 123.624 31.746C124.496 32.1068 125.441 32.3232 126.386 32.3232C127.331 32.3232 128.276 32.1789 129.148 31.8903C129.875 31.6017 130.456 31.241 131.037 30.7359V27.3449C131.037 27.2727 131.037 27.1284 130.892 27.2727C130.601 27.7778 130.165 28.2107 129.729 28.6436C128.93 29.3651 127.912 29.8701 126.895 29.9423C125.805 30.0144 124.715 29.7258 123.77 29.0765L132.055 21.14L131.764 20.9235ZM122.243 27.4892C121.662 26.6234 121.444 25.6133 121.589 24.6032C121.735 23.5931 122.171 22.7273 122.898 22.0058C123.624 21.2843 124.496 20.8514 125.514 20.7792C126.604 20.7071 127.622 20.9235 128.494 21.5007L122.243 27.4892ZM140.34 18.5426C139.613 18.5426 138.887 18.6869 138.233 18.9755C137.578 19.2641 136.997 19.697 136.488 20.2742V18.759H134.09V32.0346H136.634V25.974C136.634 24.0981 136.924 22.7994 137.433 22.0058C138.741 20.4906 141.067 20.4185 142.593 21.7172L142.666 21.7893C143.32 22.7273 143.611 23.8095 143.465 24.8918V31.9625H145.936V24.4589C146.082 22.8716 145.5 21.2843 144.483 20.0577C143.465 18.9755 141.939 18.3983 140.34 18.5426ZM222.32 6.85426H219.704V18.759H218.032V6.85426H215.779V5.48341H218.032V4.25685C218.032 1.94805 218.687 0.36075 221.303 0.36075C221.739 0.36075 222.248 0.36075 222.684 0.4329V1.80375C222.32 1.7316 221.884 1.65945 221.521 1.65945C219.704 1.65945 219.777 2.81385 219.704 4.25685V5.41126H222.32V6.85426ZM234.676 18.759H233.149V16.3781H233.077C232.205 18.1097 230.388 19.1919 228.498 19.1919C225.155 19.1919 223.774 17.2439 223.774 14.1414V5.48341H225.446V14.1414C225.518 16.5224 226.463 17.8211 229.007 17.8211C231.841 17.8211 233.004 15.2237 233.004 12.482V5.48341H234.603L234.676 18.759ZM237.728 5.48341H239.4V7.79221H239.472C240.199 6.13276 241.871 5.0505 243.76 5.12265C247.539 5.12265 248.63 7.07071 248.63 10.2453V18.759H247.031V10.4618C247.031 8.15296 246.304 6.42136 243.615 6.42136C240.926 6.42136 239.472 8.36941 239.4 10.9668V18.759H237.728V5.48341ZM263.456 18.759H261.93V16.2338H261.857C261.13 17.9654 259.023 19.1198 257.06 19.1198C252.99 19.1198 251.028 15.873 251.028 12.1212C251.028 8.36941 252.99 5.12265 257.06 5.12265C259.095 5.0505 260.912 6.20491 261.712 8.00866H261.784V0.36075H263.383V18.759H263.456ZM257.133 17.7489C260.621 17.7489 261.857 14.8629 261.857 12.1212C261.857 9.37951 260.621 6.49351 257.133 6.49351C254.008 6.49351 252.772 9.37951 252.772 12.1934C252.772 15.0072 254.008 17.7489 257.133 17.7489ZM266.363 9.52381C266.508 6.42136 268.761 5.0505 271.814 5.0505C274.212 5.0505 276.756 5.77201 276.756 9.30736V16.3781C276.683 16.8831 277.047 17.316 277.483 17.3882C277.555 17.3882 277.628 17.3882 277.701 17.3882C277.846 17.3882 278.064 17.316 278.209 17.316V18.6869C277.846 18.759 277.483 18.8312 277.119 18.759C275.448 18.759 275.23 17.8211 275.23 16.4502H275.157C273.994 18.1818 272.831 19.1198 270.288 19.1198C267.744 19.1198 265.782 17.8932 265.782 15.2237C265.782 11.4719 269.415 11.3276 272.977 10.9668C274.357 10.8225 275.084 10.6061 275.084 9.16306C275.084 6.99856 273.485 6.42136 271.596 6.42136C269.706 6.42136 268.035 7.35931 268.035 9.52381H266.363ZM275.084 11.4719C274.794 11.8326 274.067 11.9769 273.631 12.0491C270.869 12.5541 267.38 12.482 267.38 15.0794C267.453 16.5945 268.761 17.7489 270.288 17.6768H270.36C272.831 17.6768 275.084 16.0895 275.012 13.4921V11.4719H275.084ZM289.474 9.66811C288.966 7.64791 287.803 6.49351 285.622 6.49351C282.497 6.49351 280.898 9.30736 280.898 12.1934C280.898 15.0794 282.425 17.8211 285.622 17.8211C287.73 17.7489 289.402 16.0895 289.547 14.0693H291.219C290.783 17.2439 288.675 19.1919 285.695 19.1919C281.625 19.1919 279.372 15.9452 279.372 12.1934C279.372 8.44156 281.625 5.1948 285.695 5.1948C288.53 5.1948 290.783 6.70996 291.146 9.74026L289.474 9.66811ZM293.472 0.36075H295.143V2.95815H293.472V0.36075ZM293.472 5.48341H295.143V18.759H293.472V5.48341ZM310.187 12.1212C310.187 15.9452 307.934 19.1198 303.865 19.1198C299.795 19.1198 297.542 15.873 297.542 12.1212C297.542 8.36941 299.795 5.12265 303.865 5.12265C307.934 5.12265 310.26 8.29726 310.187 12.1212ZM299.14 12.1212C299.14 14.9351 300.667 17.7489 303.865 17.7489C307.062 17.7489 308.589 14.9351 308.589 12.1212C308.589 9.30736 307.062 6.49351 303.865 6.49351C300.667 6.49351 299.213 9.30736 299.14 12.1212ZM303.719 3.6075H302.338L305.1 0H307.135L303.719 3.6075ZM312.659 5.48341H314.257V7.79221H314.33C315.057 6.13276 316.801 5.0505 318.618 5.12265C322.397 5.12265 323.487 7.07071 323.487 10.2453V18.759H321.816V10.4618C321.816 8.15296 321.089 6.42136 318.4 6.42136C315.711 6.42136 314.257 8.36941 314.185 10.9668V18.759H312.586V5.48341H312.659ZM226.608 45.3102H225.082V42.9293H225.009C224.137 44.6609 222.32 45.7431 220.358 45.671C217.015 45.671 215.634 43.7229 215.634 40.6205V31.9625H217.306V40.6205C217.378 43.0014 218.323 44.3001 220.867 44.3001C223.701 44.3001 224.864 41.7027 224.864 38.961V32.0346H226.536L226.608 45.3102ZM229.661 32.0346H231.26V34.3434H231.332C232.059 32.684 233.731 31.6017 235.62 31.6739C239.4 31.6739 240.49 33.6219 240.49 36.7965V45.3102H238.818V37.013C238.818 34.7042 238.091 32.9726 235.402 32.9726C232.713 32.9726 231.26 34.9206 231.187 37.518V45.2381H229.661V32.0346ZM243.615 26.912H245.214V29.5094H243.615V26.912ZM243.615 32.0346H245.214V45.3102H243.615V32.0346ZM246.885 32.0346H248.702L252.918 43.7229L257.06 32.0346H258.732L253.717 45.3102H251.973L246.885 32.0346ZM261.348 39.1053C261.348 41.4863 262.656 44.3001 265.782 44.3001C268.18 44.3001 269.488 42.9293 269.997 40.9091H271.596C270.869 43.9394 269.125 45.671 265.782 45.671C261.494 45.671 259.749 42.4242 259.749 38.6724C259.749 35.2092 261.566 31.6739 265.782 31.6739C269.997 31.6739 271.814 35.4257 271.668 39.1053H261.348ZM269.997 37.7345C269.924 35.2814 268.398 32.9726 265.709 32.9726C263.02 32.9726 261.566 35.2814 261.276 37.7345H269.997ZM273.849 32.0346H275.375V35.1371H275.448C276.174 33.0447 278.282 31.6739 280.535 31.8182V33.4776C277.991 33.2612 275.738 35.1371 275.52 37.6623C275.52 37.8788 275.52 38.0952 275.52 38.2395V45.3102H273.921L273.849 32.0346ZM289.983 35.9307C289.91 33.9105 288.312 33.0447 286.495 33.0447C285.041 33.0447 283.297 33.6219 283.297 35.3535C283.297 36.7965 284.968 37.3016 286.059 37.5902L288.239 38.0952C290.128 38.3838 292.091 39.4661 292.091 41.7749C292.091 44.6609 289.184 45.7431 286.713 45.7431C283.587 45.7431 281.48 44.3001 281.189 41.0534H282.861C283.006 43.2179 284.605 44.3723 286.785 44.3723C288.312 44.3723 290.419 43.7229 290.419 41.847C290.419 40.3319 288.966 39.8268 287.512 39.4661L285.404 39.0332C283.297 38.456 281.698 37.7345 281.698 35.4978C281.698 32.7561 284.387 31.746 286.713 31.746C289.402 31.746 291.509 33.1169 291.582 36.0029L289.983 35.9307ZM294.489 26.912H296.088V29.5094H294.489V26.912ZM294.489 32.0346H296.088V45.3102H294.489V32.0346ZM301.83 32.0346H304.591V33.4055H301.83V42.3521C301.83 43.4343 301.975 44.0115 303.138 44.0837C303.574 44.0837 304.083 44.0837 304.519 44.0115V45.3824C304.01 45.3824 303.574 45.4545 303.065 45.4545C300.885 45.4545 300.158 44.733 300.158 42.4964V33.4055H297.832V32.0346H300.158V28.0664H301.757L301.83 32.0346ZM306.772 36.075C306.917 32.9726 309.097 31.6017 312.222 31.6017C314.621 31.6017 317.164 32.3232 317.164 35.8586V42.9293C317.092 43.4343 317.455 43.8672 317.891 43.8672C317.964 43.8672 318.037 43.8672 318.109 43.8672C318.255 43.8672 318.473 43.7951 318.618 43.7951V45.1659C318.255 45.2381 317.891 45.3102 317.528 45.2381C315.856 45.2381 315.638 44.3001 315.638 42.9293H315.566C314.403 44.6609 313.24 45.671 310.696 45.671C308.152 45.671 306.19 44.4444 306.19 41.7749C306.19 38.0231 309.824 37.9509 313.385 37.518C314.766 37.3737 315.493 37.1573 315.493 35.7143C315.493 33.5498 313.894 32.9726 312.004 32.9726C309.969 32.9726 308.443 33.9105 308.443 36.075H306.772ZM315.493 38.0231H315.42C315.202 38.3838 314.475 38.5281 314.039 38.6003C311.278 39.1053 307.789 39.0332 307.789 41.6306C307.862 43.1457 309.17 44.3001 310.696 44.228H310.769C313.24 44.228 315.493 42.6407 315.42 40.0433L315.493 38.0231ZM320.362 32.0346H321.889V35.1371H321.961C322.688 33.0447 324.796 31.6739 327.049 31.8182V33.4776C324.505 33.2612 322.325 35.1371 322.107 37.6623C322.107 37.8788 322.107 38.0231 322.107 38.2395V45.3102H320.435L320.362 32.0346ZM328.575 26.912H330.174V29.5094H328.502L328.575 26.912ZM328.575 32.0346H330.174V45.3102H328.502L328.575 32.0346ZM333.154 36.075C333.299 32.9726 335.552 31.6017 338.604 31.6017C340.93 31.6017 343.546 32.3232 343.546 35.8586V42.9293C343.474 43.4343 343.764 43.8672 344.273 43.9394C344.346 43.9394 344.419 43.9394 344.491 43.9394C344.637 43.9394 344.855 43.8672 345 43.8672V45.2381C344.637 45.3102 344.273 45.3824 343.91 45.3102C342.238 45.3102 342.02 44.3723 342.02 43.0014H341.948C340.785 44.733 339.622 45.7431 337.078 45.7431C334.534 45.7431 332.572 44.5166 332.572 41.847C332.572 38.0952 336.206 38.0231 339.767 37.5902C341.148 37.4459 341.875 37.2294 341.875 35.7864C341.875 33.6219 340.276 33.0447 338.386 33.0447C336.497 33.0447 334.825 33.9105 334.825 36.075H333.154ZM341.875 38.0231C341.584 38.3838 340.857 38.5281 340.421 38.6003C337.66 39.1053 334.244 39.0332 334.244 41.6306C334.316 43.1457 335.625 44.3001 337.151 44.228H337.223C339.695 44.228 341.948 42.6407 341.875 40.0433V38.0231Z" fill="white"/>
<path d="M24.7103 17.2438C29.289 17.2438 32.9229 20.9234 32.9229 25.3967C32.9229 29.9422 29.2163 33.5497 24.7103 33.5497C20.1317 33.5497 16.4978 29.8701 16.4978 25.3967C16.4978 20.8513 20.1317 17.2438 24.7103 17.2438ZM24.7103 17.2438C29.289 17.2438 32.9229 13.5641 32.9229 9.09083C32.9229 4.54538 29.2163 0.937873 24.7103 0.937873C20.1317 0.937873 16.4978 4.61753 16.4978 9.09083C16.4978 13.5641 20.1317 17.2438 24.7103 17.2438ZM49.4207 9.01868C49.4207 4.47323 45.7141 0.865723 41.2081 0.865723C36.6295 0.865723 32.9956 4.54538 32.9956 9.01868C32.9956 13.5641 36.7021 17.1716 41.2081 17.1716C45.7141 17.2438 49.4207 13.5641 49.4207 9.01868ZM8.21256 17.2438C3.70655 17.2438 0 20.8513 0 25.3967C0 29.9422 3.70655 33.5497 8.21256 33.5497C12.7912 33.5497 16.4251 29.8701 16.4251 25.3967C16.4978 20.8513 12.7912 17.2438 8.21256 17.2438ZM24.7103 49.9278C29.289 49.9278 32.9229 46.2481 32.9229 41.7748C32.9229 37.2294 29.2163 33.6219 24.7103 33.6219C20.1317 33.6219 16.4978 37.3015 16.4978 41.7748C16.4978 46.2481 20.1317 49.9278 24.7103 49.9278ZM49.4207 41.7748C49.4207 37.2294 45.7141 33.6219 41.2081 33.6219C36.6295 33.6219 32.9956 37.3015 32.9956 41.7748C32.9956 46.3203 36.7021 49.9278 41.2081 49.9278C45.7141 49.9278 49.4207 46.2481 49.4207 41.7748ZM197.61 49.9999H199.282V0.937873H197.61V49.9999Z" fill="#EB5D0B"/>
</g>
<defs>
<clipPath id="clip0_12_535">
<rect width="345" height="50" fill="white"/>
</clipPath>
</defs>
</svg>
