<svg width="429" height="433" viewBox="0 0 429 433" fill="none" xmlns="http://www.w3.org/2000/svg">
<g clip-path="url(#clip0_12_603)">
<path d="M96.2179 72.3115L92.9473 89.423L109.253 94.004L107.227 75.7355L96.2179 72.3115Z" fill="#A0616A"/>
<path d="M0 426.52C0 427.058 0.433383 427.49 0.973061 427.49H428.027C428.567 427.49 429 427.058 429 426.52C429 425.982 428.567 425.551 428.027 425.551H0.973061C0.433383 425.551 0 425.982 0 426.52Z" fill="#3F3D56"/>
<path d="M291.117 194.182H122.95C103.88 194.182 88.4204 209.588 88.4204 228.592V391.097C88.4204 410.101 103.88 425.507 122.95 425.507H291.117C310.187 425.507 325.646 410.101 325.646 391.097V228.592C325.646 209.588 310.187 194.182 291.117 194.182Z" fill="white"/>
<path d="M291.117 426.322H122.95C103.46 426.322 87.6028 410.52 87.6028 391.097V228.592C87.6028 209.169 103.46 193.367 122.95 193.367H291.117C310.607 193.367 326.464 209.169 326.464 228.592V391.097C326.464 410.52 310.607 426.322 291.117 426.322ZM122.95 194.997C104.361 194.997 89.2381 210.068 89.2381 228.592V391.097C89.2381 409.622 104.361 424.692 122.95 424.692H291.117C309.706 424.692 324.829 409.622 324.829 391.097V228.592C324.829 210.068 309.706 194.997 291.117 194.997L122.95 194.997Z" fill="#3F3D56"/>
<path d="M303.298 264.633H235.704C232.837 264.633 230.504 262.309 230.504 259.452C230.504 256.595 232.837 254.27 235.704 254.27H303.298C306.165 254.27 308.497 256.595 308.497 259.452C308.497 262.309 306.165 264.633 303.298 264.633Z" fill="#E95D0E"/>
<path d="M239.886 305.381H174.181C172.525 305.381 171.177 304.038 171.177 302.387C171.177 300.736 172.525 299.394 174.181 299.394H239.886C241.542 299.394 242.889 300.736 242.889 302.387C242.889 304.038 241.542 305.381 239.886 305.381Z" fill="#E95D0E"/>
<path d="M147.019 205.311H109.507C109.367 205.311 109.253 205.424 109.253 205.564V209.916C109.253 210.055 109.367 210.168 109.507 210.168H147.019C147.159 210.168 147.273 210.055 147.273 209.916V205.564C147.273 205.424 147.159 205.311 147.019 205.311Z" fill="#E95D0E"/>
<path d="M273.372 210.168C275.526 210.168 277.272 208.429 277.272 206.282C277.272 204.136 275.526 202.396 273.372 202.396C271.219 202.396 269.473 204.136 269.473 206.282C269.473 208.429 271.219 210.168 273.372 210.168Z" fill="#3F3D56"/>
<path d="M284.096 210.168C286.249 210.168 287.995 208.429 287.995 206.282C287.995 204.136 286.249 202.396 284.096 202.396C281.942 202.396 280.196 204.136 280.196 206.282C280.196 208.429 281.942 210.168 284.096 210.168Z" fill="#3F3D56"/>
<path d="M294.819 210.168C296.973 210.168 298.719 208.429 298.719 206.282C298.719 204.136 296.973 202.396 294.819 202.396C292.666 202.396 290.92 204.136 290.92 206.282C290.92 208.429 292.666 210.168 294.819 210.168Z" fill="#3F3D56"/>
<path d="M122.541 321.407C122.541 321.944 122.974 322.376 123.514 322.376H290.553C291.093 322.376 291.526 321.944 291.526 321.407C291.526 320.869 291.093 320.437 290.553 320.437H123.514C122.974 320.437 122.541 320.869 122.541 321.407Z" fill="#3F3D56"/>
<path d="M173.485 82.2305C177.041 79.3023 181.439 78.7573 183.309 81.0129C185.179 83.2685 183.811 87.47 180.254 90.3988C178.848 91.5882 177.178 92.4249 175.382 92.839L160.157 105.056L154.556 97.8145L170.16 86.5391C170.907 84.8589 172.047 83.3815 173.485 82.2305Z" fill="#A0616A"/>
<path d="M85.4882 109.796C85.4805 109.256 85.4856 104.543 88.9868 101.564C93.0088 98.1423 98.6841 99.5273 100.675 100.013C105.273 101.135 105.65 103.101 109.968 105.121C118.047 108.899 107.924 106.965 112.732 105.754C114.396 105.334 138.334 103.68 144.293 100.025C155.882 92.9167 163.778 88.6063 163.778 88.6063L168.941 98.8947C168.941 98.8947 161.476 109.238 150.971 116.9C140.195 124.76 134.807 128.69 126.618 130.208C125.913 130.339 108.571 133.29 94.6027 122.89C91.4167 120.518 85.5792 116.172 85.4882 109.796Z" fill="#E6E6E6"/>
<path d="M101.501 83.6306C111.432 83.6306 119.483 75.6074 119.483 65.7103C119.483 55.8131 111.432 47.7899 101.501 47.7899C91.5696 47.7899 83.5186 55.8131 83.5186 65.7103C83.5186 75.6074 91.5696 83.6306 101.501 83.6306Z" fill="#A0616A"/>
<path d="M242.333 186.106L223.813 167.215L214.253 177.152L228.051 195.266L241.737 196.826L242.333 186.106Z" fill="#A0616A"/>
<path d="M136.586 150.681C137.669 150.77 141.112 151.457 144.402 149.654C146.647 148.422 147.799 146.592 148.188 146.01C153.013 138.788 171.534 127.526 188.155 126.833C191.919 126.676 194.397 127.11 196.649 128.28C199.842 129.939 201.117 132.315 205.169 137.881C207.386 140.926 209.838 143.794 212.082 146.82C225.215 164.531 230.194 165.922 229.685 171.6C229.12 177.9 222.302 183.877 217.771 183.187C215.915 182.904 215.196 181.618 212.717 179.015C205.447 171.382 202.439 172.792 197.263 166.945C191.22 160.12 192.011 154.46 188.859 154.241C185.935 154.038 184.692 158.867 178.451 165.281C175.594 168.216 173.561 169.562 167.364 173.846C143.235 190.528 142.85 191.7 137.98 193.031C135.849 193.613 120.728 197.744 115.341 191.169C106.911 180.881 126.826 149.872 136.586 150.681Z" fill="#2F2E41"/>
<path d="M236.671 190.375C238.033 189.766 239.626 189.053 240.138 187.414C240.485 186.305 240.285 184.938 239.568 183.993C238.741 182.903 237.518 182.759 237.567 182.566C237.643 182.273 240.537 182.388 243.714 183.507C244.313 183.718 247.029 184.707 250.484 187.395C253.252 189.548 252.879 189.98 254.615 191.222C259.943 195.033 264.941 192.029 267.824 195.604C268.937 196.983 269.411 198.942 268.943 200.526C268.002 203.706 263.429 204.801 260.93 205.366C254.911 206.727 250.355 205.616 245.598 204.817C229.419 202.1 220.329 204.575 219.112 200.839C218.882 200.133 219.256 200.193 220.504 195.005C221.735 189.885 221.694 188.479 222.743 188.069C224.321 187.451 225.381 190.259 229.357 191.22C232.881 192.071 235.788 190.77 236.671 190.375Z" fill="#2F2E41"/>
<path d="M209.408 247.907L204.729 221.912L191.219 224.785L192.43 247.494L202.875 256.444L209.408 247.907Z" fill="#A0616A"/>
<path d="M141.87 159.418C142.715 160.099 145.176 162.594 148.915 162.942C151.467 163.18 153.451 162.31 154.101 162.046C162.164 158.77 183.834 159.815 197.979 168.543C201.182 170.52 202.987 172.266 204.191 174.494C205.899 177.654 205.615 180.333 205.831 187.207C205.95 190.966 206.363 194.712 206.514 198.471C207.401 220.476 210.737 224.412 207.117 228.826C203.1 233.723 194.09 234.853 190.729 231.746C189.353 230.474 189.483 229.008 188.898 225.466C187.184 215.082 183.9 214.566 182.912 206.832C181.758 197.802 185.602 193.561 183.116 191.616C180.811 189.812 177.063 193.112 168.284 194.927C164.266 195.757 161.825 195.733 154.284 195.81C124.918 196.111 123.939 196.865 119.16 195.241C117.069 194.53 102.228 189.487 101.476 181.032C100.298 167.802 134.249 153.288 141.87 159.418Z" fill="#2F2E41"/>
<path d="M202.318 248.271C203.788 248.529 205.508 248.83 206.855 247.761C207.767 247.038 208.372 245.794 208.311 244.612C208.242 243.247 207.31 242.443 207.459 242.311C207.687 242.11 210.017 243.825 212.016 246.529C212.393 247.039 214.083 249.377 215.427 253.535C216.504 256.866 215.952 257.014 216.689 259.013C218.95 265.149 224.778 265.459 225.149 270.031C225.292 271.795 224.581 273.681 223.301 274.73C220.731 276.835 216.331 275.182 213.944 274.251C208.197 272.008 205.053 268.54 201.567 265.216C189.71 253.915 180.795 250.875 181.893 247.104C182.1 246.39 182.376 246.649 186.331 243.055C190.235 239.507 190.994 238.321 192.093 238.568C193.747 238.941 193.042 241.857 195.79 244.877C198.226 247.553 201.365 248.104 202.318 248.271Z" fill="#2F2E41"/>
<path d="M103.953 69.1361C104.653 66.6405 103.773 65.7311 104.67 64.6109C104.67 64.6108 105.03 64.1601 108.255 62.9437C107.303 57.4432 108.016 56.5131 108.016 56.5131C108.836 55.4412 110.481 55.182 111.6 55.3223C113.968 55.6188 114.387 57.7518 115.902 57.704C117.995 57.6378 120.505 53.4629 119.726 49.8443C119.091 46.8926 116.35 44.7006 115.663 45.081C114.982 45.4581 112.53 43.7951 111.6 44.1283C110.965 44.3558 107.976 44.0531 107.299 44.3664C106.558 44.7087 104.439 46.8393 104.236 46.5709C102.828 44.7053 102.858 44.054 102.041 43.6519C100.593 42.9395 99.0188 44.2563 96.3048 45.5573C90.7205 48.2341 89.0854 46.6373 86.506 48.8917C85.203 50.0304 84.5043 52.2068 83.16 56.5131C81.2801 62.5354 80.3402 65.5465 81.2481 68.4216C82.174 71.3536 83.5375 70.7155 85.55 74.8522C87.7902 79.457 87.0181 82.1336 89.1349 83.1881C90.7709 84.0032 93.4001 83.4844 94.3928 81.9973C96.0924 79.4511 91.6995 76.0068 93.1978 71.9941C94.1176 69.531 96.9548 67.6634 98.6947 68.1834C100.662 68.7715 100.807 72.2867 102.041 72.2323C103.097 72.1857 103.831 69.571 103.953 69.1361Z" fill="#2F2E41"/>
<path d="M90.3299 86.2843C94.0098 82.1725 108.999 86.4283 110.405 92.9531C110.984 95.6368 108.848 96.77 109.45 99.86C110.329 104.38 115.311 104.072 119.009 108.672C124.259 115.204 118.851 121.589 124.745 132.489C126.005 134.819 127.066 136.782 129.286 138.682C134.38 143.042 139.12 141.546 141.714 145.589C143.653 148.611 142.856 152.337 142.67 153.21C141.904 156.789 139.83 157.661 138.368 160.593C135.936 165.472 138.69 169.054 138.846 174.883C139.042 182.177 135.152 192.287 127.374 195.604C118.636 199.331 108.097 193.159 102.997 187.03C99.9535 183.373 99.0701 180 97.7387 175.836C91.7887 157.228 88.4272 158.911 83.877 144.16C78.6753 127.297 77.6527 107.541 83.877 101.289C84.702 100.46 86.9724 98.5452 88.4179 95.0966C90.363 90.4561 88.6827 88.1249 90.3299 86.2843Z" fill="#E6E6E6"/>
<path d="M144.703 182C147.556 185.613 147.999 190.008 145.691 191.817C143.384 193.626 139.202 192.164 136.348 188.55C135.188 187.121 134.389 185.437 134.016 183.638L122.122 168.18L128.268 163.508L140.46 178.585C142.128 179.37 143.583 180.541 144.703 182Z" fill="#A0616A"/>
<path d="M101.142 101.954C101.671 101.837 106.302 100.88 109.943 103.688C114.125 106.913 113.922 112.733 113.851 114.774C113.687 119.489 111.833 120.258 110.73 124.883C108.667 133.535 112.597 141.576 114.768 146.019C115.519 147.557 117.934 152.262 122.74 157.33C132.088 167.185 140.428 172.371 140.428 172.371L131.468 180.308C131.468 180.308 117.196 175.973 107.525 167.288C97.6052 158.378 82.35 126.856 79.1876 119.178C78.9152 118.516 82.773 129.267 90.1388 113.518C91.819 109.926 94.8973 103.344 101.142 101.954Z" fill="#E6E6E6"/>
<path d="M223.993 343.604C218.298 344.474 214.132 348.107 214.688 351.719C215.244 355.331 220.311 357.553 226.008 356.682C228.289 356.365 230.46 355.508 232.34 354.184L256.424 350.195L254.816 340.708L230.787 344.096C228.594 343.394 226.265 343.225 223.993 343.604Z" fill="#FFB6B6"/>
<path d="M327.774 314.033L318.436 333.78L271.49 349.529L232.535 351.6L231.559 342.276L273.778 333.479L317.099 313.078L327.774 314.033Z" fill="#E6E6E6"/>
<path d="M241.189 389.014L232.805 410.148L221.955 402.775L228.367 380.659L241.189 389.014Z" fill="#FFB6B6"/>
<path d="M206.174 381.151L183.981 402.284L192.858 411.622L215.544 393.929L206.174 381.151Z" fill="#FFB6B6"/>
<path d="M331.933 312.344L331.687 310.624L326.015 299.566L307.275 304.481L310.727 319.717L331.933 312.344Z" fill="#FFB6B6"/>
<path d="M324.043 386.065L324.619 393.447C324.619 393.447 327.002 424.4 307.768 426.858C288.534 429.315 280.15 431.772 268.807 412.605L251.053 381.151L240.682 393.447L226.887 382.625C226.887 382.625 236.75 344.29 244.641 342.816C245.628 342.632 246.614 342.539 247.585 342.519C254.117 342.384 260.275 345.568 264.184 350.786L286.561 380.659L294.699 376.973L324.043 386.065Z" fill="#2F2E41"/>
<path d="M217.517 409.165L221.955 400.81L234.778 409.656C234.778 409.656 237.737 420.468 233.298 421.943C228.86 423.417 216.53 421.451 216.53 421.451C216.53 421.451 193.844 426.366 193.351 421.943C192.858 417.52 203.708 416.537 203.708 416.537L217.517 409.165Z" fill="#2F2E41"/>
<path d="M265.848 403.267L231.572 381.745L214.064 397.369L202.228 383.608C202.228 383.608 223.928 351.662 230.339 350.188C236.751 348.714 247.107 347.731 247.107 347.731L278.67 376.727L265.848 403.267Z" fill="#2F2E41"/>
<path d="M183.488 400.318L194.831 412.605L193.335 413.88C193.335 413.88 190.392 426.653 183.488 422.332C176.583 418.011 176.09 417.028 176.09 417.028C176.09 417.028 156.363 421.451 154.39 413.588C152.417 405.724 157.842 407.199 157.842 407.199L162.768 410.148L183.488 400.318Z" fill="#2F2E41"/>
<path d="M313.193 309.887C321.909 309.887 328.974 302.846 328.974 294.16C328.974 285.474 321.909 278.433 313.193 278.433C304.477 278.433 297.411 285.474 297.411 294.16C297.411 302.846 304.477 309.887 313.193 309.887Z" fill="#FFB6B6"/>
<path d="M309.494 316.522L332.18 309.641C332.18 309.641 341.057 330.283 339.578 339.621C338.098 348.959 324.619 393.447 324.619 393.447L294.699 376.973C294.699 376.973 294.205 367.144 292.726 362.72C291.246 358.297 286.561 344.782 296.918 333.478C307.275 322.174 309.494 316.522 309.494 316.522Z" fill="#E6E6E6"/>
<path d="M259.563 419.722C255.871 424.13 255.161 429.601 257.976 431.943C260.792 434.284 266.066 432.608 269.759 428.198C271.258 426.456 272.317 424.382 272.847 422.149L288.254 403.276L280.749 397.224L264.984 415.611C262.874 416.53 261.015 417.94 259.563 419.722Z" fill="#FFB6B6"/>
<path d="M326.895 326.438L332.257 347.604L306.013 389.469L279.222 416.302L270.538 409.123L297.558 375.62L318.038 332.452L326.895 326.438Z" fill="#E6E6E6"/>
<path d="M298.644 291.457C302.691 291.447 302.921 291.474 303.576 291.457C308.596 291.325 309.909 289.357 312.453 289.491C316.994 289.731 311 312.421 308.508 322.911C306.063 333.199 314.325 342.418 314.919 343.062C323.305 352.151 338.036 353.813 340.564 349.942C342.61 346.809 335.359 342.046 337.112 335.198C338.825 328.504 346.736 329.217 348.948 322.911C351.264 316.307 343.481 312.977 338.591 296.863C335.783 287.609 336.28 285.885 333.66 280.153C326.655 264.833 292.324 271.356 296.178 285.559C296.924 288.307 294.94 291.466 298.644 291.457Z" fill="#2F2E41"/>
<path d="M349.038 104.756H183.176C178.486 104.756 174.67 100.953 174.67 96.2786V8.47712C174.67 3.8031 178.486 0 183.176 0H349.038C353.729 0 357.545 3.80309 357.545 8.47712V96.2786C357.545 100.953 353.729 104.756 349.038 104.756Z" fill="white"/>
<path d="M349.038 104.756H183.176C178.486 104.756 174.67 100.953 174.67 96.2786V8.47712C174.67 3.8031 178.486 0 183.176 0H349.038C353.729 0 357.545 3.80309 357.545 8.47712V96.2786C357.545 100.953 353.729 104.756 349.038 104.756ZM183.176 1.41562C179.269 1.41562 176.09 4.58348 176.09 8.47712V96.2786C176.09 100.172 179.269 103.34 183.176 103.34H349.038C352.945 103.34 356.124 100.172 356.124 96.2786V8.47712C356.124 4.58348 352.945 1.41562 349.038 1.41562H183.176Z" fill="#3F3D56"/>
<path d="M336.237 10.6171C337.414 10.6171 338.368 9.66646 338.368 8.49372C338.368 7.32099 337.414 6.3703 336.237 6.3703C335.06 6.3703 334.106 7.32099 334.106 8.49372C334.106 9.66646 335.06 10.6171 336.237 10.6171Z" fill="#3F3D56"/>
<path d="M341.919 10.6171C343.096 10.6171 344.05 9.66646 344.05 8.49372C344.05 7.32099 343.096 6.3703 341.919 6.3703C340.742 6.3703 339.788 7.32099 339.788 8.49372C339.788 9.66646 340.742 10.6171 341.919 10.6171Z" fill="#3F3D56"/>
<path d="M347.601 10.6171C348.778 10.6171 349.732 9.66646 349.732 8.49372C349.732 7.32099 348.778 6.3703 347.601 6.3703C346.424 6.3703 345.47 7.32099 345.47 8.49372C345.47 9.66646 346.424 10.6171 347.601 10.6171Z" fill="#3F3D56"/>
<path d="M186.744 42.8224C186.157 42.8224 185.679 43.2987 185.679 43.8842C185.679 44.1696 185.789 44.4337 185.99 44.6286C186.193 44.8353 186.458 44.9459 186.744 44.9459H346.181C346.768 44.9459 347.246 44.4696 347.246 43.8842C347.246 43.5987 347.135 43.3346 346.935 43.1397C346.732 42.933 346.467 42.8224 346.181 42.8224H186.744Z" fill="#E6E6E6"/>
<path d="M326.293 42.4685V45.2997H186.744C186.353 45.2997 185.998 45.144 185.743 44.8821C185.48 44.6273 185.323 44.2734 185.323 43.8841C185.323 43.1055 185.963 42.4685 186.744 42.4685H326.293Z" fill="#E95D0E"/>
<path d="M344.405 37.16H330.2C328.633 37.16 327.359 35.8902 327.359 34.3287C327.359 32.7673 328.633 31.4975 330.2 31.4975H344.405C345.971 31.4975 347.246 32.7673 347.246 34.3287C347.246 35.8902 345.971 37.16 344.405 37.16Z" fill="#E6E6E6"/>
<path d="M251.361 22.296H187.81C186.243 22.296 184.969 21.0262 184.969 19.4647C184.969 17.9033 186.243 16.6335 187.81 16.6335H251.361C252.927 16.6335 254.202 17.9033 254.202 19.4647C254.202 21.0262 252.927 22.296 251.361 22.296Z" fill="#E6E6E6"/>
<path d="M186.744 74.6738C186.157 74.6738 185.679 75.1501 185.679 75.7355C185.679 76.021 185.789 76.2851 185.99 76.48C186.193 76.6867 186.458 76.7973 186.744 76.7973H346.181C346.768 76.7973 347.246 76.321 347.246 75.7355C347.246 75.4501 347.135 75.186 346.935 74.9911C346.732 74.7844 346.467 74.6738 346.181 74.6738H186.744Z" fill="#E6E6E6"/>
<path d="M271.603 74.3199V77.1512H186.744C186.353 77.1512 185.998 76.9954 185.743 76.7336C185.48 76.4788 185.323 76.1248 185.323 75.7356C185.323 74.9569 185.963 74.3199 186.744 74.3199H271.603Z" fill="#E95D0E"/>
<path d="M344.405 69.0114H330.2C328.633 69.0114 327.359 67.7416 327.359 66.1801C327.359 64.6186 328.633 63.3489 330.2 63.3489H344.405C345.971 63.3489 347.246 64.6186 347.246 66.1801C347.246 67.7416 345.971 69.0114 344.405 69.0114Z" fill="#E6E6E6"/>
</g>
<defs>
<clipPath id="clip0_12_603">
<rect width="429" height="433" fill="white"/>
</clipPath>
</defs>
</svg>
