<svg width="612" height="350" viewBox="0 0 612 350" fill="none" xmlns="http://www.w3.org/2000/svg">
<g clip-path="url(#clip0_12_560)">
<path d="M33.4242 318.745C20.3829 330.388 17.676 349.483 17.676 349.483C17.676 349.483 36.1134 349.703 49.1547 338.06C62.1961 326.417 64.9029 307.322 64.9029 307.322C64.9029 307.322 46.4656 307.103 33.4242 318.745Z" fill="#F2F2F2"/>
<path d="M39.4504 323.378C33.8953 340.353 17.9243 350 17.9243 350C17.9243 350 10.96 332.125 16.5151 315.15C22.0702 298.175 38.0412 288.528 38.0412 288.528C38.0412 288.528 45.0056 306.403 39.4504 323.378Z" fill="#F2F2F2"/>
<path d="M175.576 72.2314C172.625 68.2283 168.455 64.5243 168.191 59.5846C167.949 55.054 171.175 50.5557 169.815 46.2212C168.768 42.8885 165.316 40.8776 161.943 39.8127C155.485 37.8032 148.574 38.0817 142.283 40.6051L142.624 40.353C138.785 38.921 134.296 40.3993 131.275 43.1375C128.254 45.8756 126.458 49.671 125.065 53.4743C123.672 57.2777 122.593 61.2202 120.657 64.7859C118.721 68.3516 115.757 71.5943 111.846 72.8266C113.155 75.5607 117.248 76.4987 119.648 74.6147C120.261 74.0934 120.813 73.4968 121.29 72.8378C122.891 70.7998 124.492 68.7617 126.093 66.7237C127.74 69.791 125.279 74.0244 127.304 76.864C128.348 78.3283 130.255 78.8844 132.026 79.2833C145.867 82.3754 160.226 81.8178 173.811 77.6606C174.903 77.3238 176.107 76.8599 176.56 75.8252C177.083 74.6307 176.352 73.284 175.576 72.2314Z" fill="#2F2E41"/>
<path d="M214.823 87.8535C214.737 88.2514 214.681 88.6557 214.655 89.0628L184.401 107.336L177.048 102.904L169.208 113.649L181.498 122.82C182.491 123.56 183.686 123.944 184.905 123.913C186.124 123.882 187.3 123.438 188.258 122.647L219.455 96.8797C220.862 97.4253 222.396 97.5093 223.85 97.1203C225.305 96.7314 226.612 95.888 227.597 94.7024C228.583 93.5168 229.201 92.0451 229.368 90.4831C229.535 88.9211 229.244 87.3428 228.534 85.9582C227.823 84.5735 226.727 83.4481 225.391 82.7317C224.054 82.0153 222.542 81.7417 221.053 81.9475C219.565 82.1532 218.172 82.8285 217.059 83.8835C215.946 84.9385 215.166 86.3232 214.823 87.8535Z" fill="#FFB7B7"/>
<path d="M183.39 108.202L173.612 121.47C173.334 121.847 172.981 122.157 172.578 122.379C172.175 122.601 171.731 122.73 171.276 122.756C170.821 122.782 170.366 122.705 169.943 122.53C169.519 122.356 169.136 122.088 168.82 121.744L157.751 109.71C155.911 108.21 154.716 106.006 154.426 103.584C154.137 101.162 154.778 98.7184 156.207 96.79C157.637 94.8617 159.739 93.6061 162.052 93.2989C164.365 92.9917 166.7 93.6579 168.545 95.1514L182.428 103.279C182.826 103.512 183.17 103.832 183.439 104.217C183.708 104.602 183.894 105.043 183.986 105.51C184.077 105.977 184.071 106.459 183.968 106.924C183.865 107.388 183.668 107.824 183.39 108.202Z" fill="#E95D0E"/>
<path d="M169.933 339.38L178.567 339.379L182.675 304.511L169.931 304.512L169.933 339.38Z" fill="#FFB7B7"/>
<path d="M167.73 336.428L184.734 336.427H184.735C187.609 336.428 190.365 337.623 192.397 339.751C194.429 341.878 195.571 344.764 195.571 347.773V348.141L167.731 348.142L167.73 336.428Z" fill="#2F2E41"/>
<path d="M110.774 339.38L119.408 339.379L123.516 304.511L110.772 304.512L110.774 339.38Z" fill="#FFB7B7"/>
<path d="M108.571 336.428L125.575 336.427H125.576C128.45 336.428 131.206 337.623 133.238 339.751C135.27 341.878 136.412 344.764 136.412 347.773V348.141L108.572 348.142L108.571 336.428Z" fill="#2F2E41"/>
<path d="M164.747 67.3022C165.647 58.7254 159.735 51.0093 151.543 50.0678C143.351 49.1263 135.981 55.3159 135.081 63.8927C134.182 72.4695 140.094 80.1856 148.286 81.1271C156.478 82.0686 163.848 75.879 164.747 67.3022Z" fill="#FFB7B7"/>
<path d="M158.646 89.0181L167.437 93.5777C167.437 93.5777 177.259 111.449 171.625 128.408C168.889 136.642 176.592 162.889 176.592 162.889C176.592 162.889 188.527 281.778 188.565 318.471C173.737 320.857 159.652 323.807 158.948 316.433C158.243 309.06 150.534 221.877 150.534 221.877C150.534 221.877 139.932 318.645 131.481 320.12C123.03 321.595 106.127 319.383 106.127 319.383C106.127 319.383 119.546 177.636 128.702 168.788L130.11 161.414L130.072 95.2271L140.621 89.9568L158.646 89.0181Z" fill="#2F2E41"/>
<path d="M127.198 189.498C128.171 188.946 129.016 188.179 129.675 187.249C130.334 186.318 130.79 185.248 131.011 184.113C131.232 182.979 131.212 181.807 130.954 180.681C130.696 179.555 130.205 178.502 129.516 177.596L139.739 106.249L126.382 105.577L118.413 176.63C117.036 177.942 116.167 179.738 115.97 181.677C115.774 183.616 116.263 185.563 117.346 187.149C118.429 188.735 120.03 189.85 121.846 190.283C123.661 190.716 125.566 190.436 127.198 189.498Z" fill="#FFB7B7"/>
<path d="M139.449 124.126L123.475 123.07C123.02 123.04 122.577 122.907 122.176 122.682C121.774 122.457 121.424 122.143 121.149 121.763C120.874 121.383 120.68 120.946 120.581 120.48C120.482 120.015 120.48 119.533 120.575 119.066L123.903 102.726C124.063 100.292 125.138 98.0236 126.893 96.4182C128.648 94.8128 130.939 94.0015 133.264 94.1624C135.59 94.3233 137.759 95.4431 139.297 97.2763C140.835 99.1096 141.616 101.507 141.468 103.942L142.807 120.536C142.845 121.011 142.785 121.489 142.631 121.938C142.477 122.386 142.232 122.795 141.913 123.136C141.594 123.476 141.209 123.741 140.784 123.912C140.359 124.083 139.904 124.156 139.449 124.126Z" fill="#E95D0E"/>
<path d="M580.946 56.4695H227.686C225.108 56.4695 222.634 57.542 220.811 59.4511C218.988 61.3602 217.963 63.9495 217.963 66.6494V272.724C217.963 275.424 218.988 278.013 220.811 279.922C222.634 281.831 225.108 282.904 227.686 282.904H580.946C583.524 282.904 585.997 281.831 587.821 279.922C589.644 278.013 590.669 275.424 590.669 272.724V66.6494C590.669 63.9495 589.644 61.3602 587.821 59.4511C585.997 57.542 583.524 56.4695 580.946 56.4695Z" fill="#3F3D56"/>
<path d="M577.633 74.4602H230.999V279.182H577.633V74.4602Z" fill="white"/>
<path d="M404.02 68.877C405.983 68.877 407.575 67.2105 407.575 65.1548C407.575 63.0991 405.983 61.4326 404.02 61.4326C402.056 61.4326 400.464 63.0991 400.464 65.1548C400.464 67.2105 402.056 68.877 404.02 68.877Z" fill="white"/>
<path d="M478.501 279.182H230.999V74.4602L478.501 279.182Z" fill="#F2F2F2"/>
<path d="M600.401 275.46H566.572V272.908C566.572 272.774 566.521 272.645 566.431 272.55C566.34 272.455 566.217 272.402 566.089 272.402H554.49C554.427 272.402 554.364 272.415 554.305 272.44C554.247 272.466 554.193 272.503 554.148 272.55C554.104 272.597 554.068 272.653 554.044 272.714C554.019 272.776 554.007 272.841 554.007 272.908V275.46H546.758V272.908C546.758 272.841 546.745 272.776 546.721 272.714C546.697 272.653 546.661 272.597 546.616 272.55C546.571 272.503 546.518 272.466 546.46 272.44C546.401 272.415 546.338 272.402 546.275 272.402H534.676C534.613 272.402 534.55 272.415 534.491 272.44C534.432 272.466 534.379 272.503 534.334 272.55C534.289 272.597 534.254 272.653 534.23 272.714C534.205 272.776 534.193 272.841 534.193 272.908V275.46H526.944V272.908C526.944 272.841 526.931 272.776 526.907 272.714C526.883 272.653 526.847 272.597 526.802 272.55C526.757 272.503 526.704 272.466 526.645 272.44C526.587 272.415 526.524 272.402 526.46 272.402H514.862C514.798 272.402 514.735 272.415 514.677 272.44C514.618 272.466 514.565 272.503 514.52 272.55C514.475 272.597 514.44 272.653 514.415 272.714C514.391 272.776 514.378 272.841 514.378 272.908V275.46H507.129V272.908C507.129 272.841 507.117 272.776 507.093 272.714C507.068 272.653 507.033 272.597 506.988 272.55C506.943 272.503 506.89 272.466 506.831 272.44C506.772 272.415 506.71 272.402 506.646 272.402H495.047C494.984 272.402 494.921 272.415 494.863 272.44C494.804 272.466 494.751 272.503 494.706 272.55C494.661 272.597 494.625 272.653 494.601 272.714C494.577 272.776 494.564 272.841 494.564 272.908V275.46H487.315V272.908C487.315 272.841 487.303 272.776 487.278 272.714C487.254 272.653 487.218 272.597 487.174 272.55C487.129 272.503 487.075 272.466 487.017 272.44C486.958 272.415 486.895 272.402 486.832 272.402H475.233C475.17 272.402 475.107 272.415 475.048 272.44C474.99 272.466 474.936 272.503 474.892 272.55C474.847 272.597 474.811 272.653 474.787 272.714C474.762 272.776 474.75 272.841 474.75 272.908V275.46H467.501V272.908C467.501 272.841 467.488 272.776 467.464 272.714C467.44 272.653 467.404 272.597 467.359 272.55C467.314 272.503 467.261 272.466 467.202 272.44C467.144 272.415 467.081 272.402 467.018 272.402H455.419C455.356 272.402 455.293 272.415 455.234 272.44C455.175 272.466 455.122 272.503 455.077 272.55C455.032 272.597 454.997 272.653 454.972 272.714C454.948 272.776 454.936 272.841 454.936 272.908V275.46H447.687V272.908C447.687 272.841 447.674 272.776 447.65 272.714C447.626 272.653 447.59 272.597 447.545 272.55C447.5 272.503 447.447 272.466 447.388 272.44C447.33 272.415 447.267 272.402 447.203 272.402H356.348C356.284 272.402 356.221 272.415 356.163 272.44C356.104 272.466 356.051 272.503 356.006 272.55C355.961 272.597 355.925 272.653 355.901 272.714C355.877 272.776 355.864 272.841 355.864 272.908V275.46H348.615V272.908C348.615 272.841 348.603 272.776 348.579 272.714C348.554 272.653 348.519 272.597 348.474 272.55C348.429 272.503 348.376 272.466 348.317 272.44C348.258 272.415 348.195 272.402 348.132 272.402H336.533C336.47 272.402 336.407 272.415 336.349 272.44C336.29 272.466 336.237 272.503 336.192 272.55C336.147 272.597 336.111 272.653 336.087 272.714C336.063 272.776 336.05 272.841 336.05 272.908V275.46H328.801V272.908C328.801 272.841 328.789 272.776 328.764 272.714C328.74 272.653 328.704 272.597 328.66 272.55C328.615 272.503 328.561 272.466 328.503 272.44C328.444 272.415 328.381 272.402 328.318 272.402H316.719C316.656 272.402 316.593 272.415 316.534 272.44C316.476 272.466 316.422 272.503 316.377 272.55C316.333 272.597 316.297 272.653 316.273 272.714C316.248 272.776 316.236 272.841 316.236 272.908V275.46H308.987V272.908C308.987 272.841 308.974 272.776 308.95 272.714C308.926 272.653 308.89 272.597 308.845 272.55C308.8 272.503 308.747 272.466 308.688 272.44C308.63 272.415 308.567 272.402 308.504 272.402H296.905C296.841 272.402 296.779 272.415 296.72 272.44C296.661 272.466 296.608 272.503 296.563 272.55C296.518 272.597 296.483 272.653 296.458 272.714C296.434 272.776 296.422 272.841 296.422 272.908V275.46H289.173V272.908C289.173 272.841 289.16 272.776 289.136 272.714C289.111 272.653 289.076 272.597 289.031 272.55C288.986 272.503 288.933 272.466 288.874 272.44C288.816 272.415 288.753 272.402 288.689 272.402H277.091C277.027 272.402 276.964 272.415 276.906 272.44C276.847 272.466 276.794 272.503 276.749 272.55C276.704 272.597 276.668 272.653 276.644 272.714C276.62 272.776 276.607 272.841 276.607 272.908V275.46H269.358V272.908C269.358 272.841 269.346 272.776 269.321 272.714C269.297 272.653 269.262 272.597 269.217 272.55C269.172 272.503 269.119 272.466 269.06 272.44C269.001 272.415 268.938 272.402 268.875 272.402H257.276C257.148 272.402 257.025 272.455 256.935 272.55C256.844 272.645 256.793 272.774 256.793 272.908V275.46H249.544V272.908C249.544 272.841 249.532 272.776 249.507 272.714C249.483 272.653 249.447 272.597 249.403 272.55C249.358 272.503 249.304 272.466 249.246 272.44C249.187 272.415 249.124 272.402 249.061 272.402H237.462C237.334 272.402 237.211 272.455 237.12 272.55C237.03 272.645 236.979 272.774 236.979 272.908V275.46H214.748C213.225 275.46 211.717 275.774 210.31 276.384C208.902 276.994 207.624 277.889 206.547 279.016C205.47 280.144 204.615 281.483 204.033 282.956C203.45 284.429 203.15 286.008 203.15 287.603V293.094C203.15 296.315 204.372 299.403 206.547 301.681C208.722 303.958 211.672 305.237 214.748 305.237H600.401C603.477 305.237 606.428 303.958 608.603 301.681C610.778 299.403 612 296.315 612 293.094V287.603C612 286.008 611.7 284.429 611.117 282.956C610.534 281.483 609.68 280.144 608.603 279.016C607.526 277.889 606.247 276.994 604.84 276.384C603.433 275.774 601.924 275.46 600.401 275.46Z" fill="#3F3D56"/>
<path d="M410.984 252.338C410.868 252.626 410.737 252.907 410.593 253.181C409.837 254.642 408.769 255.901 407.471 256.858C405.935 257.99 404.132 258.659 402.257 258.791C400.383 258.923 398.51 258.514 396.843 257.608C395.175 256.701 393.778 255.333 392.802 253.653C391.827 251.972 391.311 250.043 391.311 248.076V246.343H392.716C398.174 250.037 404.488 252.109 410.984 252.338Z" fill="#3F3D56"/>
<path d="M431.03 246.85V248.076C431.031 250.462 430.272 252.781 428.874 254.665C427.476 256.55 425.518 257.893 423.309 258.482C421.101 259.072 418.767 258.874 416.678 257.92C414.589 256.966 412.863 255.311 411.772 253.215C411.622 252.935 411.486 252.646 411.366 252.351C411.666 252.359 411.961 252.364 412.261 252.364C418.883 252.372 425.379 250.464 431.03 246.85Z" fill="#3F3D56"/>
<path d="M444.849 117.233C444.541 117.185 444.229 117.155 443.916 117.134C447.464 125.694 447.71 135.359 444.602 144.104C444.915 144.065 445.223 144.014 445.531 143.954C448.539 143.343 451.243 141.635 453.161 139.133C455.079 136.631 456.087 133.498 456.005 130.291C455.923 127.083 454.757 124.011 452.714 121.62C450.671 119.228 447.884 117.674 444.849 117.233Z" fill="#3F3D56"/>
<path d="M380.606 117.134C380.294 117.155 379.982 117.185 379.674 117.233C376.639 117.674 373.851 119.228 371.808 121.62C369.765 124.011 368.599 127.083 368.517 130.291C368.435 133.498 369.443 136.631 371.361 139.133C373.28 141.635 375.983 143.343 378.992 143.954C379.3 144.014 379.608 144.065 379.92 144.104C376.813 135.359 377.059 125.694 380.606 117.134Z" fill="#3F3D56"/>
<path d="M444.849 117.233C441.465 108.769 435.197 101.925 427.262 98.03C419.328 94.1348 410.294 93.4664 401.915 96.1547C393.537 98.8431 386.411 104.696 381.924 112.577C377.437 120.458 375.908 129.804 377.634 138.799C379.36 147.794 384.218 155.796 391.265 161.251C398.311 166.706 407.043 169.223 415.763 168.315C424.483 167.407 432.57 163.137 438.451 156.335C444.333 149.534 447.59 140.686 447.589 131.511C447.587 126.609 446.656 121.755 444.849 117.233ZM444.602 144.104C441.598 152.561 435.678 159.534 428.009 163.65C420.34 167.767 411.477 168.729 403.165 166.347C394.852 163.966 387.692 158.413 383.094 150.782C378.496 143.15 376.792 133.993 378.319 125.113C379.846 116.233 384.492 108.273 391.343 102.799C398.194 97.3251 406.754 94.7344 415.338 95.5368C423.922 96.3392 431.908 100.476 437.725 107.134C443.542 113.792 446.767 122.488 446.767 131.511C446.766 135.81 446.033 140.074 444.602 144.104Z" fill="#3F3D56"/>
<path d="M430.336 123.125H394.187C392.28 123.125 390.452 123.918 389.104 125.329C387.755 126.741 386.998 128.655 386.998 130.651C386.998 132.647 387.755 134.562 389.104 135.973C390.452 137.385 392.28 138.178 394.187 138.178H430.336C432.242 138.178 434.071 137.385 435.419 135.973C436.767 134.562 437.525 132.647 437.525 130.651C437.525 128.655 436.767 126.741 435.419 125.329C434.071 123.918 432.242 123.125 430.336 123.125Z" fill="#3F3D56"/>
<path d="M444.602 195.782C444.471 195.529 444.335 195.279 444.196 195.034C444.192 195.025 444.187 195.021 444.183 195.013C440.951 189.22 436.336 184.406 430.79 181.045C425.245 177.683 418.96 175.889 412.552 175.839C406.144 175.788 399.834 177.483 394.241 180.756C388.648 184.03 383.964 188.77 380.648 194.511C377.333 200.252 375.501 206.797 375.331 213.504C375.161 220.21 376.66 226.848 379.68 232.765C382.7 238.682 387.137 243.675 392.557 247.254C397.977 250.834 404.192 252.876 410.593 253.181C410.984 253.202 411.378 253.215 411.772 253.215C411.937 253.224 412.097 253.224 412.261 253.224C418.865 253.234 425.349 251.378 431.03 247.852C437.2 244.029 442.184 238.421 445.383 231.703C445.387 231.694 445.391 231.69 445.395 231.681C445.518 231.423 445.638 231.161 445.757 230.894C448.227 225.362 449.411 219.296 449.21 213.193C449.009 207.09 447.43 201.123 444.602 195.782ZM444.956 230.658C444.836 230.924 444.713 231.187 444.586 231.445C441.53 237.805 436.834 243.141 431.03 246.85C425.379 250.464 418.883 252.372 412.261 252.364C411.961 252.364 411.666 252.359 411.366 252.351C411.238 252.351 411.111 252.346 410.984 252.338C404.712 252.108 398.605 250.173 393.264 246.723C387.923 243.272 383.532 238.426 380.523 232.659C377.515 226.893 375.991 220.406 376.104 213.836C376.217 207.267 377.961 200.841 381.165 195.191C384.37 189.542 388.924 184.863 394.38 181.616C399.835 178.368 406.005 176.663 412.28 176.67C418.556 176.676 424.722 178.393 430.172 181.651C435.622 184.91 440.168 189.597 443.362 195.253C443.366 195.262 443.37 195.266 443.374 195.275C443.518 195.52 443.657 195.769 443.789 196.019C446.608 201.277 448.185 207.164 448.388 213.19C448.591 219.216 447.414 225.205 444.956 230.658Z" fill="#3F3D56"/>
<path d="M440.675 196.926C439.956 196.39 439.094 196.1 438.211 196.096H422.054C420.929 196.096 419.85 196.565 419.054 197.398C418.258 198.231 417.811 199.361 417.811 200.539C417.811 201.717 418.258 202.847 419.054 203.681C419.85 204.514 420.929 204.982 422.054 204.982H438.211C438.499 204.983 438.787 204.952 439.069 204.892C439.35 204.828 439.625 204.737 439.891 204.621C440.581 204.309 441.181 203.811 441.627 203.177C442.073 202.543 442.35 201.797 442.43 201.014C442.51 200.231 442.39 199.44 442.081 198.721C441.773 198.003 441.288 197.384 440.675 196.926Z" fill="#3F3D56"/>
<path d="M423.13 202.794C424.32 202.794 425.284 201.785 425.284 200.539C425.284 199.293 424.32 198.283 423.13 198.283C421.94 198.283 420.976 199.293 420.976 200.539C420.976 201.785 421.94 202.794 423.13 202.794Z" fill="#FFF8B6"/>
<path d="M430.132 202.794C431.321 202.794 432.286 201.785 432.286 200.539C432.286 199.293 431.321 198.283 430.132 198.283C428.942 198.283 427.977 199.293 427.977 200.539C427.977 201.785 428.942 202.794 430.132 202.794Z" fill="#FFF8B6"/>
<path d="M437.133 202.794C438.323 202.794 439.287 201.785 439.287 200.539C439.287 199.293 438.323 198.283 437.133 198.283C435.943 198.283 434.979 199.293 434.979 200.539C434.979 201.785 435.943 202.794 437.133 202.794Z" fill="#E95D0E"/>
<path d="M518.273 126.2C512.67 129.718 502.689 134.126 492.488 129.596L485.895 126.668L499.108 111.16C488.564 98.9886 482.731 83.1398 482.747 66.7076C482.763 50.2754 488.627 34.4392 499.195 22.29C509.763 10.1408 524.275 2.5507 539.9 1.00111C555.526 -0.548477 571.141 4.05371 583.7 13.9094C596.259 23.7651 604.859 38.1668 607.821 54.3036C610.784 70.4404 607.897 87.154 599.723 101.182C591.55 115.21 578.676 125.546 563.616 130.172C548.556 134.798 532.39 133.382 518.273 126.2Z" fill="white"/>
<path d="M518.307 127.036C512.924 130.345 502.669 134.919 492.213 130.275L484.715 126.945L498.163 111.162C489.796 101.309 484.401 89.083 482.657 76.0252C480.913 62.9675 482.899 49.6615 488.364 37.783C493.829 25.9046 502.53 15.9848 513.369 9.27308C524.208 2.56132 536.702 -0.642315 549.277 0.065638C561.852 0.773591 573.946 5.36147 584.036 13.2515C594.125 21.1415 601.759 31.9808 605.976 44.4044C610.193 56.8279 610.805 70.2801 607.734 83.0668C604.663 95.8535 598.047 107.403 588.718 116.26C579.35 125.21 567.638 131.019 555.089 132.939C542.541 134.86 529.73 132.804 518.307 127.036ZM592.073 22.8854C586.568 16.5279 579.922 11.368 572.512 7.70035C565.103 4.03269 557.076 1.92915 548.89 1.50988C540.704 1.0906 532.519 2.3638 524.803 5.25676C517.087 8.14972 509.991 12.6058 503.92 18.3704C497.849 24.135 492.922 31.0953 489.421 38.8537C485.92 46.6121 483.913 55.0167 483.514 63.5873C483.116 72.158 484.334 80.7269 487.099 88.8046C489.864 96.8823 494.122 104.311 499.63 110.665L500.055 111.157L487.075 126.391L492.763 128.918C502.861 133.402 512.853 128.744 517.911 125.568L518.238 125.363L518.581 125.537C531.618 132.169 546.454 133.843 560.541 130.271C574.628 126.698 587.088 118.103 595.782 105.96C604.476 93.8167 608.86 78.8838 608.184 63.7248C607.507 48.5658 601.811 34.1264 592.073 22.8854Z" fill="#E95D0E"/>
<path opacity="0.1" d="M599.125 66.3634C599.124 51.1691 593.689 36.5257 583.891 25.317C574.093 14.1083 560.641 7.14663 546.186 5.80304C547.877 5.6479 549.588 5.56396 551.318 5.56396C566.714 5.57369 581.476 11.9836 592.359 23.3847C603.242 34.7857 609.355 50.2448 609.355 66.3634C609.355 82.4821 603.242 97.9411 592.359 109.342C581.476 120.743 566.714 127.153 551.318 127.163C549.591 127.163 547.883 127.078 546.194 126.923C560.648 125.577 574.097 118.615 583.894 107.407C593.69 96.1984 599.124 81.5564 599.125 66.3634Z" fill="black"/>
<path d="M555.046 56.2393H513.551V60.2737H555.046V56.2393Z" fill="#E95D0E"/>
<path d="M584.874 68.1958H512.551V72.2303H584.874V68.1958Z" fill="#E95D0E"/>
<path d="M584.803 82.1523H512.551V86.1868H584.803V82.1523Z" fill="#E95D0E"/>
<path d="M269.033 348.911H0.704274C0.517489 348.911 0.338353 348.834 0.206276 348.695C0.0741995 348.557 0 348.37 0 348.174C0 347.979 0.0741995 347.791 0.206276 347.653C0.338353 347.514 0.517489 347.437 0.704274 347.437H269.033C269.219 347.437 269.398 347.514 269.531 347.653C269.663 347.791 269.737 347.979 269.737 348.174C269.737 348.37 269.663 348.557 269.531 348.695C269.398 348.834 269.219 348.911 269.033 348.911Z" fill="#CBCBCB"/>
<path d="M165.554 55.4419C164.972 52.6803 163.084 50.3921 160.908 48.7164C157.321 45.954 152.923 44.5961 148.478 44.879C144.034 45.162 139.825 47.0679 136.585 50.265C134.774 51.9394 133.468 54.13 132.828 56.5688C132.522 57.7877 132.506 59.0664 132.78 60.2934C133.055 61.5205 133.611 62.6587 134.402 63.6091L134.7 63.8046C134.43 62.6042 135.32 61.4047 136.384 60.8751C137.491 60.4499 138.646 60.1787 139.82 60.0686C141.596 59.7171 143.28 58.9705 144.757 57.8793C146.234 56.7881 147.47 55.3776 148.382 53.7433C149.057 55.7548 150.136 57.5916 151.546 59.1301C152.956 60.6686 154.665 61.8731 156.557 62.6627C158.529 63.4702 163.946 64.5806 165.823 63.5554C168.218 62.2478 166.135 58.2036 165.554 55.4419Z" fill="#2F2E41"/>
</g>
<defs>
<clipPath id="clip0_12_560">
<rect width="612" height="350" fill="white"/>
</clipPath>
</defs>
</svg>
