<svg width="57" height="57" viewBox="0 0 57 57" fill="none" xmlns="http://www.w3.org/2000/svg">
<path d="M40.9688 23.8687L32.2406 32.5969C31.8844 32.9531 31.35 33.1313 30.9937 33.1313C30.6375 33.1313 30.1031 32.9531 29.7469 32.5969C29.0344 31.8844 29.0344 30.8156 29.7469 30.1031L38.475 21.375C35.8031 19.2375 32.2406 17.8125 28.5 17.8125C19.5938 17.8125 12.4688 24.9375 12.4688 33.8438C12.4688 42.75 19.5938 49.875 28.5 49.875C37.4062 49.875 44.5312 42.75 44.5312 33.8438C44.5312 30.1031 43.2844 26.5406 40.9688 23.8687Z" fill="#E95D0E"/>
<path d="M28.5 14.25C27.4312 14.25 26.7188 13.5375 26.7188 12.4688V8.90625C26.7188 7.8375 27.4312 7.125 28.5 7.125C29.5688 7.125 30.2812 7.8375 30.2812 8.90625V12.4688C30.2812 13.5375 29.5688 14.25 28.5 14.25Z" fill="#E95D0E"/>
<path d="M17.8125 17.1C17.2781 17.1 16.5656 16.7437 16.2094 16.2094L14.4281 13.1812C14.0719 12.2906 14.25 11.2219 15.1406 10.6875C16.0313 10.1531 17.1 10.5094 17.6344 11.4L19.4156 14.4281C19.95 15.3187 19.5938 16.3875 18.7031 16.9219C18.3469 17.1 18.1688 17.1 17.8125 17.1Z" fill="#E95D0E"/>
<path d="M9.9751 24.9375C9.61885 24.9375 9.44072 24.9375 9.08447 24.7594L6.05635 22.9781C5.16572 22.4438 4.80947 21.375 5.34385 20.4844C5.87822 19.5938 6.94697 19.4156 7.8376 19.7719L10.8657 21.5531C11.7563 22.0875 11.9345 23.1563 11.5782 24.0469C11.222 24.5813 10.6876 24.9375 9.9751 24.9375Z" fill="#E95D0E"/>
<path d="M7.125 35.625H3.5625C2.49375 35.625 1.78125 34.9125 1.78125 33.8438C1.78125 32.775 2.49375 32.0625 3.5625 32.0625H7.125C8.19375 32.0625 8.90625 32.775 8.90625 33.8438C8.90625 34.9125 8.19375 35.625 7.125 35.625Z" fill="#E95D0E"/>
<path d="M53.4375 35.625H49.875C48.8062 35.625 48.0938 34.9125 48.0938 33.8438C48.0938 32.775 48.8062 32.0625 49.875 32.0625H53.4375C54.5062 32.0625 55.2188 32.775 55.2188 33.8438C55.2188 34.9125 54.5062 35.625 53.4375 35.625Z" fill="#E95D0E"/>
<path d="M47.0251 24.9375C46.4907 24.9375 45.7782 24.5812 45.422 24.0468C44.8876 23.1562 45.2438 22.0875 46.1345 21.5531L49.1626 19.7718C50.0532 19.2375 51.122 19.5937 51.6563 20.4843C52.1907 21.375 51.8345 22.4437 50.9438 22.9781L47.9157 24.7593C47.5595 24.9374 47.3813 24.9375 47.0251 24.9375Z" fill="#E95D0E"/>
<path d="M39.1875 17.1C38.8313 17.1 38.6531 17.1 38.2969 16.9219C37.4063 16.3875 37.2281 15.3187 37.5844 14.4281L39.3656 11.4C39.9 10.5094 40.9688 10.1531 41.8594 10.6875C42.75 11.2219 42.9281 12.2906 42.5719 13.1812L40.7906 16.2094C40.4344 16.7437 39.7219 17.1 39.1875 17.1Z" fill="#E95D0E"/>
</svg>
