<svg width="400" height="400" viewBox="0 0 400 400" fill="none" xmlns="http://www.w3.org/2000/svg">
<g clip-path="url(#clip0_62_2)">
<rect width="400" height="400" fill="#070707"/>
<path d="M136.136 130.455V177H126.591L108.068 150.136H107.773V177H96.5227V130.455H106.205L124.523 157.273H124.909V130.455H136.136ZM138.09 177V130.455H170.545V139.591H149.34V149.136H168.886V158.295H149.34V167.864H170.545V177H138.09ZM216.402 153.727C216.402 158.848 215.417 163.189 213.448 166.75C211.478 170.311 208.811 173.015 205.448 174.864C202.099 176.712 198.341 177.636 194.175 177.636C189.993 177.636 186.228 176.705 182.879 174.841C179.531 172.977 176.872 170.273 174.902 166.727C172.948 163.167 171.97 158.833 171.97 153.727C171.97 148.606 172.948 144.265 174.902 140.705C176.872 137.144 179.531 134.439 182.879 132.591C186.228 130.742 189.993 129.818 194.175 129.818C198.341 129.818 202.099 130.742 205.448 132.591C208.811 134.439 211.478 137.144 213.448 140.705C215.417 144.265 216.402 148.606 216.402 153.727ZM204.902 153.727C204.902 150.697 204.47 148.136 203.607 146.045C202.758 143.955 201.531 142.371 199.925 141.295C198.334 140.22 196.417 139.682 194.175 139.682C191.948 139.682 190.031 140.22 188.425 141.295C186.819 142.371 185.584 143.955 184.72 146.045C183.872 148.136 183.448 150.697 183.448 153.727C183.448 156.758 183.872 159.318 184.72 161.409C185.584 163.5 186.819 165.083 188.425 166.159C190.031 167.235 191.948 167.773 194.175 167.773C196.417 167.773 198.334 167.235 199.925 166.159C201.531 165.083 202.758 163.5 203.607 161.409C204.47 159.318 204.902 156.758 204.902 153.727Z" fill="#E95D0E"/>
<path d="M138.773 224.318H127.409C127.258 223.152 126.947 222.098 126.477 221.159C126.008 220.22 125.386 219.417 124.614 218.75C123.841 218.083 122.924 217.576 121.864 217.227C120.818 216.864 119.659 216.682 118.386 216.682C116.129 216.682 114.182 217.235 112.545 218.341C110.924 219.447 109.674 221.045 108.795 223.136C107.932 225.227 107.5 227.758 107.5 230.727C107.5 233.818 107.939 236.409 108.818 238.5C109.712 240.576 110.962 242.144 112.568 243.205C114.189 244.25 116.106 244.773 118.318 244.773C119.561 244.773 120.689 244.614 121.705 244.295C122.735 243.977 123.636 243.515 124.409 242.909C125.197 242.288 125.841 241.538 126.341 240.659C126.856 239.765 127.212 238.758 127.409 237.636L138.773 237.705C138.576 239.765 137.977 241.795 136.977 243.795C135.992 245.795 134.636 247.621 132.909 249.273C131.182 250.909 129.076 252.212 126.591 253.182C124.121 254.152 121.288 254.636 118.091 254.636C113.879 254.636 110.106 253.712 106.773 251.864C103.455 250 100.833 247.288 98.9091 243.727C96.9848 240.167 96.0227 235.833 96.0227 230.727C96.0227 225.606 97 221.265 98.9545 217.705C100.909 214.144 103.553 211.439 106.886 209.591C110.22 207.742 113.955 206.818 118.091 206.818C120.909 206.818 123.515 207.212 125.909 208C128.303 208.773 130.409 209.909 132.227 211.409C134.045 212.894 135.523 214.72 136.659 216.886C137.795 219.053 138.5 221.53 138.773 224.318ZM151.204 234.091V254H140.09V207.455H150.84V225.5H151.227C152.014 223.348 153.302 221.667 155.09 220.455C156.893 219.242 159.098 218.636 161.704 218.636C164.158 218.636 166.295 219.182 168.113 220.273C169.931 221.348 171.34 222.871 172.34 224.841C173.355 226.811 173.855 229.114 173.84 231.75V254H162.727V233.932C162.742 231.992 162.257 230.477 161.272 229.386C160.287 228.295 158.901 227.75 157.113 227.75C155.946 227.75 154.916 228.008 154.022 228.523C153.143 229.023 152.454 229.742 151.954 230.682C151.469 231.621 151.219 232.758 151.204 234.091ZM185.499 254.591C183.271 254.591 181.294 254.22 179.567 253.477C177.855 252.72 176.499 251.583 175.499 250.068C174.514 248.538 174.021 246.621 174.021 244.318C174.021 242.379 174.362 240.742 175.044 239.409C175.726 238.076 176.665 236.992 177.862 236.159C179.059 235.326 180.438 234.697 181.999 234.273C183.559 233.833 185.226 233.538 186.999 233.386C188.983 233.205 190.582 233.015 191.794 232.818C193.006 232.606 193.885 232.311 194.43 231.932C194.991 231.538 195.271 230.985 195.271 230.273V230.159C195.271 228.992 194.87 228.091 194.067 227.455C193.264 226.818 192.18 226.5 190.817 226.5C189.347 226.5 188.165 226.818 187.271 227.455C186.377 228.091 185.809 228.97 185.567 230.091L175.317 229.727C175.62 227.606 176.4 225.712 177.658 224.045C178.93 222.364 180.673 221.045 182.885 220.091C185.112 219.121 187.787 218.636 190.908 218.636C193.135 218.636 195.188 218.902 197.067 219.432C198.946 219.947 200.582 220.705 201.976 221.705C203.37 222.689 204.446 223.902 205.203 225.341C205.976 226.78 206.362 228.424 206.362 230.273V254H195.908V249.136H195.635C195.014 250.318 194.218 251.318 193.249 252.136C192.294 252.955 191.165 253.568 189.862 253.977C188.574 254.386 187.12 254.591 185.499 254.591ZM188.93 247.318C190.127 247.318 191.203 247.076 192.158 246.591C193.127 246.106 193.9 245.439 194.476 244.591C195.052 243.727 195.34 242.727 195.34 241.591V238.273C195.021 238.439 194.635 238.591 194.18 238.727C193.741 238.864 193.256 238.992 192.726 239.114C192.196 239.235 191.65 239.341 191.09 239.432C190.529 239.523 189.991 239.606 189.476 239.682C188.43 239.848 187.537 240.106 186.794 240.455C186.067 240.803 185.506 241.258 185.112 241.818C184.733 242.364 184.544 243.015 184.544 243.773C184.544 244.924 184.953 245.803 185.771 246.409C186.605 247.015 187.658 247.318 188.93 247.318ZM227.742 219.091V227.273H205.72V219.091H227.742ZM210.333 210.727H221.447V243.023C221.447 243.705 221.553 244.258 221.765 244.682C221.992 245.091 222.318 245.386 222.742 245.568C223.167 245.735 223.674 245.818 224.265 245.818C224.689 245.818 225.136 245.78 225.606 245.705C226.091 245.614 226.454 245.538 226.697 245.477L228.379 253.5C227.848 253.652 227.098 253.841 226.129 254.068C225.174 254.295 224.03 254.439 222.697 254.5C220.091 254.621 217.856 254.318 215.992 253.591C214.144 252.848 212.727 251.697 211.742 250.136C210.773 248.576 210.303 246.614 210.333 244.25V210.727ZM229.043 254V207.455H248.452C251.937 207.455 254.853 207.947 257.202 208.932C259.565 209.917 261.338 211.295 262.52 213.068C263.717 214.841 264.315 216.894 264.315 219.227C264.315 221 263.944 222.583 263.202 223.977C262.459 225.356 261.437 226.5 260.134 227.409C258.831 228.318 257.323 228.955 255.611 229.318V229.773C257.49 229.864 259.225 230.371 260.815 231.295C262.422 232.22 263.709 233.508 264.679 235.159C265.649 236.795 266.134 238.735 266.134 240.977C266.134 243.477 265.497 245.712 264.225 247.682C262.952 249.636 261.111 251.182 258.702 252.318C256.293 253.439 253.368 254 249.929 254H229.043ZM240.293 244.932H247.247C249.687 244.932 251.482 244.47 252.634 243.545C253.8 242.621 254.384 241.333 254.384 239.682C254.384 238.485 254.103 237.455 253.543 236.591C252.982 235.712 252.187 235.038 251.156 234.568C250.126 234.083 248.891 233.841 247.452 233.841H240.293V244.932ZM240.293 226.591H246.52C247.747 226.591 248.838 226.386 249.793 225.977C250.747 225.568 251.49 224.977 252.02 224.205C252.565 223.432 252.838 222.5 252.838 221.409C252.838 219.848 252.285 218.621 251.179 217.727C250.073 216.833 248.581 216.386 246.702 216.386H240.293V226.591ZM282.718 254.659C279.052 254.659 275.9 253.909 273.264 252.409C270.642 250.894 268.62 248.788 267.195 246.091C265.786 243.379 265.082 240.235 265.082 236.659C265.082 233.068 265.786 229.924 267.195 227.227C268.62 224.515 270.642 222.409 273.264 220.909C275.9 219.394 279.052 218.636 282.718 218.636C286.385 218.636 289.529 219.394 292.15 220.909C294.786 222.409 296.809 224.515 298.218 227.227C299.642 229.924 300.355 233.068 300.355 236.659C300.355 240.235 299.642 243.379 298.218 246.091C296.809 248.788 294.786 250.894 292.15 252.409C289.529 253.909 286.385 254.659 282.718 254.659ZM282.786 246.273C284.12 246.273 285.248 245.864 286.173 245.045C287.097 244.227 287.802 243.091 288.286 241.636C288.786 240.182 289.036 238.5 289.036 236.591C289.036 234.652 288.786 232.955 288.286 231.5C287.802 230.045 287.097 228.909 286.173 228.091C285.248 227.273 284.12 226.864 282.786 226.864C281.408 226.864 280.241 227.273 279.286 228.091C278.347 228.909 277.627 230.045 277.127 231.5C276.642 232.955 276.4 234.652 276.4 236.591C276.4 238.5 276.642 240.182 277.127 241.636C277.627 243.091 278.347 244.227 279.286 245.045C280.241 245.864 281.408 246.273 282.786 246.273ZM320.632 219.091V227.273H298.61V219.091H320.632ZM303.223 210.727H314.337V243.023C314.337 243.705 314.443 244.258 314.655 244.682C314.882 245.091 315.208 245.386 315.632 245.568C316.057 245.735 316.564 245.818 317.155 245.818C317.579 245.818 318.026 245.78 318.496 245.705C318.981 245.614 319.344 245.538 319.587 245.477L321.269 253.5C320.738 253.652 319.988 253.841 319.019 254.068C318.064 254.295 316.92 254.439 315.587 254.5C312.981 254.621 310.746 254.318 308.882 253.591C307.034 252.848 305.617 251.697 304.632 250.136C303.663 248.576 303.193 246.614 303.223 244.25V210.727Z" fill="white"/>
</g>
<defs>
<clipPath id="clip0_62_2">
<rect width="400" height="400" fill="white"/>
</clipPath>
</defs>
</svg>
