<svg width="710" height="97" viewBox="0 0 710 97" fill="none" xmlns="http://www.w3.org/2000/svg">
<path d="M79.2727 1.90909V95H60.1818L23.1364 41.2727H22.5455V95H0.045455V1.90909H19.4091L56.0455 55.5455H56.8182V1.90909H79.2727ZM83.1805 95V1.90909H148.09V20.1818H105.68V39.2727H144.771V57.5909H105.68V76.7273H148.09V95H83.1805ZM239.804 48.4545C239.804 58.697 237.834 67.3788 233.895 74.5C229.956 81.6212 224.622 87.0303 217.895 90.7273C211.198 94.4242 203.683 96.2727 195.35 96.2727C186.986 96.2727 179.456 94.4091 172.759 90.6818C166.062 86.9545 160.743 81.5455 156.804 74.4545C152.895 67.3333 150.94 58.6667 150.94 48.4545C150.94 38.2121 152.895 29.5303 156.804 22.4091C160.743 15.2879 166.062 9.87879 172.759 6.18182C179.456 2.48485 186.986 0.63636 195.35 0.63636C203.683 0.63636 211.198 2.48485 217.895 6.18182C224.622 9.87879 229.956 15.2879 233.895 22.4091C237.834 29.5303 239.804 38.2121 239.804 48.4545ZM216.804 48.4545C216.804 42.3939 215.94 37.2727 214.213 33.0909C212.516 28.9091 210.062 25.7424 206.85 23.5909C203.668 21.4394 199.834 20.3636 195.35 20.3636C190.895 20.3636 187.062 21.4394 183.85 23.5909C180.637 25.7424 178.168 28.9091 176.44 33.0909C174.743 37.2727 173.895 42.3939 173.895 48.4545C173.895 54.5151 174.743 59.6364 176.44 63.8182C178.168 68 180.637 71.1667 183.85 73.3182C187.062 75.4697 190.895 76.5455 195.35 76.5455C199.834 76.5455 203.668 75.4697 206.85 73.3182C210.062 71.1667 212.516 68 214.213 63.8182C215.94 59.6364 216.804 54.5151 216.804 48.4545Z" fill="#E95D0E"/>
<path d="M79.2727 1.90909V95H60.1818L23.1364 41.2727H22.5455V95H0.045455V1.90909H19.4091L56.0455 55.5455H56.8182V1.90909H79.2727ZM83.1805 95V1.90909H148.09V20.1818H105.68V39.2727H144.771V57.5909H105.68V76.7273H148.09V95H83.1805ZM239.804 48.4545C239.804 58.697 237.834 67.3788 233.895 74.5C229.956 81.6212 224.622 87.0303 217.895 90.7273C211.198 94.4242 203.683 96.2727 195.35 96.2727C186.986 96.2727 179.456 94.4091 172.759 90.6818C166.062 86.9545 160.743 81.5455 156.804 74.4545C152.895 67.3333 150.94 58.6667 150.94 48.4545C150.94 38.2121 152.895 29.5303 156.804 22.4091C160.743 15.2879 166.062 9.87879 172.759 6.18182C179.456 2.48485 186.986 0.63636 195.35 0.63636C203.683 0.63636 211.198 2.48485 217.895 6.18182C224.622 9.87879 229.956 15.2879 233.895 22.4091C237.834 29.5303 239.804 38.2121 239.804 48.4545ZM216.804 48.4545C216.804 42.3939 215.94 37.2727 214.213 33.0909C212.516 28.9091 210.062 25.7424 206.85 23.5909C203.668 21.4394 199.834 20.3636 195.35 20.3636C190.895 20.3636 187.062 21.4394 183.85 23.5909C180.637 25.7424 178.168 28.9091 176.44 33.0909C174.743 37.2727 173.895 42.3939 173.895 48.4545C173.895 54.5151 174.743 59.6364 176.44 63.8182C178.168 68 180.637 71.1667 183.85 73.3182C187.062 75.4697 190.895 76.5455 195.35 76.5455C199.834 76.5455 203.668 75.4697 206.85 73.3182C210.062 71.1667 212.516 68 214.213 63.8182C215.94 59.6364 216.804 54.5151 216.804 48.4545Z" fill="#E95D0E"/>
<path d="M344.46 35.6364H321.733C321.43 33.303 320.809 31.197 319.87 29.3182C318.93 27.4394 317.688 25.8333 316.142 24.5C314.597 23.1667 312.763 22.1515 310.642 21.4545C308.551 20.7273 306.233 20.3636 303.688 20.3636C299.173 20.3636 295.279 21.4697 292.006 23.6818C288.763 25.8939 286.263 29.0909 284.506 33.2727C282.779 37.4545 281.915 42.5151 281.915 48.4545C281.915 54.6364 282.794 59.8182 284.551 64C286.339 68.1515 288.839 71.2879 292.051 73.4091C295.294 75.5 299.127 76.5455 303.551 76.5455C306.036 76.5455 308.294 76.2273 310.324 75.5909C312.385 74.9545 314.188 74.0303 315.733 72.8182C317.309 71.5758 318.597 70.0758 319.597 68.3182C320.627 66.5303 321.339 64.5152 321.733 62.2727L344.46 62.4091C344.067 66.5303 342.87 70.5909 340.87 74.5909C338.9 78.5909 336.188 82.2424 332.733 85.5455C329.279 88.8182 325.067 91.4242 320.097 93.3636C315.157 95.303 309.491 96.2727 303.097 96.2727C294.673 96.2727 287.127 94.4242 280.46 90.7273C273.824 87 268.582 81.5758 264.733 74.4545C260.885 67.3333 258.96 58.6667 258.96 48.4545C258.96 38.2121 260.915 29.5303 264.824 22.4091C268.733 15.2879 274.021 9.87879 280.688 6.18182C287.354 2.48485 294.824 0.63636 303.097 0.63636C308.733 0.63636 313.945 1.42424 318.733 3C323.521 4.54545 327.733 6.81818 331.37 9.81818C335.006 12.7879 337.96 16.4394 340.233 20.7727C342.506 25.1061 343.915 30.0606 344.46 35.6364ZM369.323 55.1818V95H347.095V1.90909H368.595V38H369.368C370.944 33.697 373.52 30.3333 377.095 27.9091C380.702 25.4848 385.111 24.2727 390.323 24.2727C395.232 24.2727 399.505 25.3636 403.141 27.5455C406.777 29.697 409.595 32.7424 411.595 36.6818C413.626 40.6212 414.626 45.2273 414.595 50.5V95H392.368V54.8636C392.398 50.9848 391.429 47.9545 389.459 45.7727C387.489 43.5909 384.717 42.5 381.141 42.5C378.808 42.5 376.747 43.0152 374.959 44.0455C373.202 45.0455 371.823 46.4848 370.823 48.3636C369.853 50.2424 369.353 52.5151 369.323 55.1818ZM437.912 96.1818C433.458 96.1818 429.503 95.4394 426.049 93.9545C422.624 92.4394 419.912 90.1667 417.912 87.1364C415.943 84.0758 414.958 80.2424 414.958 75.6364C414.958 71.7576 415.64 68.4848 417.003 65.8182C418.367 63.1515 420.246 60.9848 422.64 59.3182C425.033 57.6515 427.791 56.3939 430.912 55.5455C434.033 54.6667 437.367 54.0758 440.912 53.7727C444.882 53.4091 448.079 53.0303 450.503 52.6364C452.927 52.2121 454.685 51.6212 455.776 50.8636C456.897 50.0758 457.458 48.9697 457.458 47.5455V47.3182C457.458 44.9848 456.655 43.1818 455.049 41.9091C453.443 40.6364 451.276 40 448.549 40C445.609 40 443.246 40.6364 441.458 41.9091C439.67 43.1818 438.533 44.9394 438.049 47.1818L417.549 46.4545C418.155 42.2121 419.715 38.4242 422.23 35.0909C424.776 31.7273 428.261 29.0909 432.685 27.1818C437.14 25.2424 442.488 24.2727 448.73 24.2727C453.185 24.2727 457.291 24.803 461.049 25.8636C464.806 26.8939 468.079 28.4091 470.867 30.4091C473.655 32.3788 475.806 34.803 477.321 37.6818C478.867 40.5606 479.64 43.8485 479.64 47.5455V95H458.73V85.2727H458.185C456.943 87.6364 455.352 89.6364 453.412 91.2727C451.503 92.9091 449.246 94.1364 446.64 94.9545C444.064 95.7727 441.155 96.1818 437.912 96.1818ZM444.776 81.6364C447.17 81.6364 449.321 81.1515 451.23 80.1818C453.17 79.2121 454.715 77.8788 455.867 76.1818C457.018 74.4545 457.594 72.4545 457.594 70.1818V63.5455C456.958 63.8788 456.185 64.1818 455.276 64.4545C454.397 64.7273 453.427 64.9848 452.367 65.2273C451.306 65.4697 450.215 65.6818 449.094 65.8636C447.973 66.0455 446.897 66.2121 445.867 66.3636C443.776 66.697 441.988 67.2121 440.503 67.9091C439.049 68.6061 437.927 69.5152 437.14 70.6364C436.382 71.7273 436.003 73.0303 436.003 74.5455C436.003 76.8485 436.821 78.6061 438.458 79.8182C440.124 81.0303 442.23 81.6364 444.776 81.6364ZM522.4 25.1818V41.5455H478.354V25.1818H522.4ZM487.581 8.45454H509.809V73.0455C509.809 74.4091 510.021 75.5152 510.445 76.3636C510.9 77.1818 511.551 77.7727 512.4 78.1364C513.248 78.4697 514.263 78.6364 515.445 78.6364C516.293 78.6364 517.187 78.5606 518.127 78.4091C519.097 78.2273 519.824 78.0758 520.309 77.9545L523.672 94C522.612 94.303 521.112 94.6818 519.172 95.1364C517.263 95.5909 514.975 95.8788 512.309 96C507.097 96.2424 502.627 95.6364 498.9 94.1818C495.203 92.697 492.369 90.3939 490.4 87.2727C488.46 84.1515 487.521 80.2273 487.581 75.5V8.45454ZM525 95V1.90909H563.819C570.788 1.90909 576.622 2.89394 581.319 4.86363C586.046 6.83333 589.591 9.5909 591.955 13.1364C594.349 16.6818 595.546 20.7879 595.546 25.4545C595.546 29 594.804 32.1667 593.319 34.9545C591.834 37.7121 589.788 40 587.182 41.8182C584.576 43.6364 581.561 44.9091 578.137 45.6364V46.5455C581.894 46.7273 585.364 47.7424 588.546 49.5909C591.758 51.4394 594.334 54.0152 596.273 57.3182C598.213 60.5909 599.182 64.4697 599.182 68.9545C599.182 73.9545 597.91 78.4242 595.364 82.3636C592.819 86.2727 589.137 89.3636 584.319 91.6364C579.5 93.8788 573.652 95 566.773 95H525ZM547.5 76.8636H561.41C566.288 76.8636 569.879 75.9394 572.182 74.0909C574.516 72.2424 575.682 69.6667 575.682 66.3636C575.682 63.9697 575.122 61.9091 574 60.1818C572.879 58.4242 571.288 57.0758 569.228 56.1364C567.167 55.1667 564.697 54.6818 561.819 54.6818H547.5V76.8636ZM547.5 40.1818H559.955C562.41 40.1818 564.591 39.7727 566.5 38.9545C568.41 38.1364 569.894 36.9545 570.955 35.4091C572.046 33.8636 572.591 32 572.591 29.8182C572.591 26.697 571.485 24.2424 569.273 22.4545C567.061 20.6667 564.076 19.7727 560.319 19.7727H547.5V40.1818ZM632.351 96.3182C625.018 96.3182 618.715 94.8182 613.442 91.8182C608.2 88.7879 604.154 84.5758 601.306 79.1818C598.488 73.7576 597.079 67.4697 597.079 60.3182C597.079 53.1364 598.488 46.8485 601.306 41.4545C604.154 36.0303 608.2 31.8182 613.442 28.8182C618.715 25.7879 625.018 24.2727 632.351 24.2727C639.685 24.2727 645.973 25.7879 651.215 28.8182C656.488 31.8182 660.533 36.0303 663.351 41.4545C666.2 46.8485 667.624 53.1364 667.624 60.3182C667.624 67.4697 666.2 73.7576 663.351 79.1818C660.533 84.5758 656.488 88.7879 651.215 91.8182C645.973 94.8182 639.685 96.3182 632.351 96.3182ZM632.488 79.5455C635.154 79.5455 637.412 78.7273 639.26 77.0909C641.109 75.4545 642.518 73.1818 643.488 70.2727C644.488 67.3636 644.988 64 644.988 60.1818C644.988 56.303 644.488 52.9091 643.488 50C642.518 47.0909 641.109 44.8182 639.26 43.1818C637.412 41.5455 635.154 40.7273 632.488 40.7273C629.73 40.7273 627.397 41.5455 625.488 43.1818C623.609 44.8182 622.17 47.0909 621.17 50C620.2 52.9091 619.715 56.303 619.715 60.1818C619.715 64 620.2 67.3636 621.17 70.2727C622.17 73.1818 623.609 75.4545 625.488 77.0909C627.397 78.7273 629.73 79.5455 632.488 79.5455ZM708.18 25.1818V41.5455H664.134V25.1818H708.18ZM673.361 8.45454H695.589V73.0455C695.589 74.4091 695.801 75.5152 696.225 76.3636C696.68 77.1818 697.331 77.7727 698.18 78.1364C699.028 78.4697 700.043 78.6364 701.225 78.6364C702.073 78.6364 702.967 78.5606 703.907 78.4091C704.876 78.2273 705.604 78.0758 706.089 77.9545L709.452 94C708.392 94.303 706.892 94.6818 704.952 95.1364C703.043 95.5909 700.755 95.8788 698.089 96C692.876 96.2424 688.407 95.6364 684.68 94.1818C680.983 92.697 678.149 90.3939 676.18 87.2727C674.24 84.1515 673.301 80.2273 673.361 75.5V8.45454Z" fill="white"/>
</svg>
