<svg width="179" height="25" viewBox="0 0 179 25" fill="none" xmlns="http://www.w3.org/2000/svg">
<path d="M20.5682 0.727272V24H15.7955L6.53409 10.5682H6.38636V24H0.761364V0.727272H5.60227L14.7614 14.1364H14.9545V0.727272H20.5682ZM21.5451 24V0.727272H37.7724V5.29545H27.1701V10.0682H36.9428V14.6477H27.1701V19.4318H37.7724V24H21.5451ZM60.701 12.3636C60.701 14.9242 60.2086 17.0947 59.2238 18.875C58.2389 20.6553 56.9056 22.0076 55.2238 22.9318C53.5495 23.8561 51.6707 24.3182 49.5874 24.3182C47.4965 24.3182 45.6139 23.8523 43.9397 22.9205C42.2654 21.9886 40.9359 20.6364 39.951 18.8636C38.9738 17.0833 38.4851 14.9167 38.4851 12.3636C38.4851 9.80303 38.9738 7.63258 39.951 5.85227C40.9359 4.07197 42.2654 2.7197 43.9397 1.79545C45.6139 0.871211 47.4965 0.40909 49.5874 0.40909C51.6707 0.40909 53.5495 0.871211 55.2238 1.79545C56.9056 2.7197 58.2389 4.07197 59.2238 5.85227C60.2086 7.63258 60.701 9.80303 60.701 12.3636ZM54.951 12.3636C54.951 10.8485 54.7351 9.56818 54.3033 8.52273C53.8791 7.47727 53.2654 6.6856 52.4624 6.14773C51.6669 5.60985 50.7086 5.34091 49.5874 5.34091C48.4738 5.34091 47.5154 5.60985 46.7124 6.14773C45.9094 6.6856 45.2919 7.47727 44.8601 8.52273C44.4359 9.56818 44.2238 10.8485 44.2238 12.3636C44.2238 13.8788 44.4359 15.1591 44.8601 16.2045C45.2919 17.25 45.9094 18.0417 46.7124 18.5795C47.5154 19.1174 48.4738 19.3864 49.5874 19.3864C50.7086 19.3864 51.6669 19.1174 52.4624 18.5795C53.2654 18.0417 53.8791 17.25 54.3033 16.2045C54.7351 15.1591 54.951 13.8788 54.951 12.3636Z" fill="#E95D0E"/>
<path d="M86.8651 9.15909H81.1833C81.1075 8.57576 80.9522 8.04924 80.7174 7.57954C80.4825 7.10985 80.1719 6.70833 79.7856 6.375C79.3992 6.04167 78.9409 5.78788 78.4106 5.61364C77.8878 5.43182 77.3083 5.34091 76.6719 5.34091C75.5431 5.34091 74.5697 5.61742 73.7515 6.17045C72.9409 6.72348 72.3159 7.52273 71.8765 8.56818C71.4447 9.61364 71.2288 10.8788 71.2288 12.3636C71.2288 13.9091 71.4484 15.2045 71.8878 16.25C72.3348 17.2879 72.9598 18.072 73.7628 18.6023C74.5734 19.125 75.5318 19.3864 76.6378 19.3864C77.2591 19.3864 77.8234 19.3068 78.331 19.1477C78.8462 18.9886 79.2969 18.7576 79.6833 18.4545C80.0772 18.1439 80.3992 17.7689 80.6492 17.3295C80.9068 16.8826 81.0848 16.3788 81.1833 15.8182L86.8651 15.8523C86.7666 16.8826 86.4674 17.8977 85.9674 18.8977C85.475 19.8977 84.7969 20.8106 83.9333 21.6364C83.0697 22.4545 82.0166 23.1061 80.7742 23.5909C79.5394 24.0758 78.1227 24.3182 76.5242 24.3182C74.4181 24.3182 72.5318 23.8561 70.8651 22.9318C69.206 22 67.8954 20.6439 66.9333 18.8636C65.9712 17.0833 65.4901 14.9167 65.4901 12.3636C65.4901 9.80303 65.9788 7.63258 66.956 5.85227C67.9333 4.07197 69.2553 2.7197 70.9219 1.79545C72.5886 0.871211 74.456 0.40909 76.5242 0.40909C77.9333 0.40909 79.2363 0.60606 80.4333 1C81.6303 1.38636 82.6833 1.95454 83.5924 2.70454C84.5015 3.44697 85.2401 4.35985 85.8083 5.44318C86.3765 6.52652 86.7288 7.76515 86.8651 9.15909ZM93.0807 14.0455V24H87.5239V0.727272H92.8989V9.75H93.092C93.486 8.67424 94.1299 7.83333 95.0239 7.22727C95.9254 6.62121 97.0276 6.31818 98.3307 6.31818C99.558 6.31818 100.626 6.59091 101.535 7.13636C102.444 7.67424 103.149 8.43561 103.649 9.42045C104.156 10.4053 104.406 11.5568 104.399 12.875V24H98.842V13.9659C98.8496 12.9962 98.6072 12.2386 98.1148 11.6932C97.6223 11.1477 96.9292 10.875 96.0352 10.875C95.4519 10.875 94.9367 11.0038 94.4898 11.2614C94.0504 11.5114 93.7057 11.8712 93.4557 12.3409C93.2133 12.8106 93.0883 13.3788 93.0807 14.0455ZM110.228 24.2955C109.114 24.2955 108.126 24.1098 107.262 23.7386C106.406 23.3598 105.728 22.7917 105.228 22.0341C104.736 21.2689 104.489 20.3106 104.489 19.1591C104.489 18.1894 104.66 17.3712 105.001 16.7045C105.342 16.0379 105.811 15.4962 106.41 15.0795C107.008 14.6629 107.698 14.3485 108.478 14.1364C109.258 13.9167 110.092 13.7689 110.978 13.6932C111.97 13.6023 112.77 13.5076 113.376 13.4091C113.982 13.303 114.421 13.1553 114.694 12.9659C114.974 12.7689 115.114 12.4924 115.114 12.1364V12.0795C115.114 11.4962 114.914 11.0455 114.512 10.7273C114.111 10.4091 113.569 10.25 112.887 10.25C112.152 10.25 111.561 10.4091 111.114 10.7273C110.667 11.0455 110.383 11.4848 110.262 12.0455L105.137 11.8636C105.289 10.803 105.679 9.85606 106.308 9.02273C106.944 8.18182 107.815 7.52273 108.921 7.04545C110.035 6.56061 111.372 6.31818 112.933 6.31818C114.046 6.31818 115.073 6.45076 116.012 6.71591C116.952 6.97348 117.77 7.35227 118.467 7.85227C119.164 8.3447 119.702 8.95076 120.08 9.67045C120.467 10.3902 120.66 11.2121 120.66 12.1364V24H115.433V21.5682H115.296C114.986 22.1591 114.588 22.6591 114.103 23.0682C113.626 23.4773 113.061 23.7841 112.41 23.9886C111.766 24.1932 111.039 24.2955 110.228 24.2955ZM111.944 20.6591C112.542 20.6591 113.08 20.5379 113.558 20.2955C114.042 20.053 114.429 19.7197 114.717 19.2955C115.005 18.8636 115.149 18.3636 115.149 17.7955V16.1364C114.989 16.2197 114.796 16.2955 114.569 16.3636C114.349 16.4318 114.107 16.4962 113.842 16.5568C113.577 16.6174 113.304 16.6705 113.024 16.7159C112.743 16.7614 112.474 16.803 112.217 16.8409C111.694 16.9242 111.247 17.053 110.876 17.2273C110.512 17.4015 110.232 17.6288 110.035 17.9091C109.845 18.1818 109.751 18.5076 109.751 18.8864C109.751 19.4621 109.955 19.9015 110.364 20.2045C110.781 20.5076 111.308 20.6591 111.944 20.6591ZM131.35 6.54545V10.6364H120.339V6.54545H131.35ZM122.645 2.36364H128.202V18.5114C128.202 18.8523 128.255 19.1288 128.361 19.3409C128.475 19.5455 128.638 19.6932 128.85 19.7841C129.062 19.8674 129.316 19.9091 129.611 19.9091C129.823 19.9091 130.047 19.8902 130.282 19.8523C130.524 19.8068 130.706 19.7689 130.827 19.7386L131.668 23.75C131.403 23.8258 131.028 23.9205 130.543 24.0341C130.066 24.1477 129.494 24.2197 128.827 24.25C127.524 24.3106 126.407 24.1591 125.475 23.7955C124.551 23.4242 123.842 22.8485 123.35 22.0682C122.865 21.2879 122.63 20.3068 122.645 19.125V2.36364ZM132 24V0.727272H141.705C143.447 0.727272 144.905 0.973484 146.08 1.46591C147.261 1.95833 148.148 2.64773 148.739 3.53409C149.337 4.42045 149.636 5.44697 149.636 6.61364C149.636 7.5 149.451 8.29167 149.08 8.98864C148.708 9.67803 148.197 10.25 147.546 10.7045C146.894 11.1591 146.14 11.4773 145.284 11.6591V11.8864C146.224 11.9318 147.091 12.1856 147.886 12.6477C148.69 13.1098 149.333 13.7538 149.818 14.5795C150.303 15.3977 150.546 16.3674 150.546 17.4886C150.546 18.7386 150.227 19.8561 149.591 20.8409C148.955 21.8182 148.034 22.5909 146.83 23.1591C145.625 23.7197 144.163 24 142.443 24H132ZM137.625 19.4659H141.102C142.322 19.4659 143.22 19.2348 143.796 18.7727C144.379 18.3106 144.671 17.6667 144.671 16.8409C144.671 16.2424 144.53 15.7273 144.25 15.2955C143.97 14.8561 143.572 14.5189 143.057 14.2841C142.542 14.0417 141.924 13.9205 141.205 13.9205H137.625V19.4659ZM137.625 10.2955H140.739C141.352 10.2955 141.898 10.1932 142.375 9.98864C142.852 9.78409 143.224 9.48864 143.489 9.10227C143.761 8.71591 143.898 8.25 143.898 7.70454C143.898 6.92424 143.621 6.31061 143.068 5.86364C142.515 5.41667 141.769 5.19318 140.83 5.19318H137.625V10.2955ZM158.838 24.3295C157.005 24.3295 155.429 23.9545 154.111 23.2045C152.8 22.447 151.789 21.3939 151.076 20.0455C150.372 18.6894 150.02 17.1174 150.02 15.3295C150.02 13.5341 150.372 11.9621 151.076 10.6136C151.789 9.25758 152.8 8.20454 154.111 7.45454C155.429 6.69697 157.005 6.31818 158.838 6.31818C160.671 6.31818 162.243 6.69697 163.554 7.45454C164.872 8.20454 165.883 9.25758 166.588 10.6136C167.3 11.9621 167.656 13.5341 167.656 15.3295C167.656 17.1174 167.3 18.6894 166.588 20.0455C165.883 21.3939 164.872 22.447 163.554 23.2045C162.243 23.9545 160.671 24.3295 158.838 24.3295ZM158.872 20.1364C159.539 20.1364 160.103 19.9318 160.565 19.5227C161.027 19.1136 161.38 18.5455 161.622 17.8182C161.872 17.0909 161.997 16.25 161.997 15.2955C161.997 14.3258 161.872 13.4773 161.622 12.75C161.38 12.0227 161.027 11.4545 160.565 11.0455C160.103 10.6364 159.539 10.4318 158.872 10.4318C158.183 10.4318 157.599 10.6364 157.122 11.0455C156.652 11.4545 156.292 12.0227 156.042 12.75C155.8 13.4773 155.679 14.3258 155.679 15.2955C155.679 16.25 155.8 17.0909 156.042 17.8182C156.292 18.5455 156.652 19.1136 157.122 19.5227C157.599 19.9318 158.183 20.1364 158.872 20.1364ZM177.795 6.54545V10.6364H166.784V6.54545H177.795ZM169.09 2.36364H174.647V18.5114C174.647 18.8523 174.7 19.1288 174.806 19.3409C174.92 19.5455 175.083 19.6932 175.295 19.7841C175.507 19.8674 175.761 19.9091 176.056 19.9091C176.268 19.9091 176.492 19.8902 176.727 19.8523C176.969 19.8068 177.151 19.7689 177.272 19.7386L178.113 23.75C177.848 23.8258 177.473 23.9205 176.988 24.0341C176.511 24.1477 175.939 24.2197 175.272 24.25C173.969 24.3106 172.852 24.1591 171.92 23.7955C170.996 23.4242 170.287 22.8485 169.795 22.0682C169.31 21.2879 169.075 20.3068 169.09 19.125V2.36364Z" fill="white"/>
</svg>
